<?xml version="1.0" encoding="utf-8"?>
<!-- Generator: Adobe Illustrator 25.0.1, SVG Export Plug-In . SVG Version: 6.00 Build 0)  -->
<svg version="1.1" xmlns="http://www.w3.org/2000/svg" xmlns:xlink="http://www.w3.org/1999/xlink" x="0px" y="0px"
	 viewBox="0 0 954 405" style="enable-background:new 0 0 954 405;" xml:space="preserve">
<style type="text/css">
	.st0{fill:none;stroke:#F5A6E6;stroke-width:7;stroke-miterlimit:10;}
	.st1{fill:#EC4E20;}
	.st2{fill:#353535;}
	.st3{fill:#7FC8F8;stroke:#5AA9E6;stroke-width:5;stroke-miterlimit:10;}
	.st4{fill:#FCF6BD;stroke:#5AA9E6;stroke-width:5;stroke-miterlimit:10;}
	.st5{fill:#55917F;}
	.st6{fill:#FF6978;}
</style>
<g id="Layer_1">
</g>
<g id="Layer_2">
</g>
<g id="Layer_3">
</g>
<g id="Layer_4">
	<g>
		<rect x="3.5" y="3.5" class="st0" width="947" height="398"/>
		<g>
			<polygon class="st1" points="211.92,324.63 211.92,285.37 245.92,265.74 279.92,285.37 279.92,324.63 245.92,344.26 			"/>
			<g>
				<path class="st2" d="M245.92,267.47l32.5,18.76v37.53l-32.5,18.76l-32.5-18.76v-37.53L245.92,267.47 M245.92,264.01l-35.5,20.5
					v40.99l35.5,20.5l35.5-20.5V284.5L245.92,264.01L245.92,264.01z"/>
			</g>
		</g>
		<g>
			<g>
				<polygon class="st1" points="211.92,283.63 211.92,244.37 245.92,224.74 279.92,244.37 279.92,283.63 245.92,303.26 				"/>
				<path class="st2" d="M245.92,226.47l32.5,18.76v37.53l-32.5,18.76l-32.5-18.76v-37.53L245.92,226.47 M245.92,223.01l-35.5,20.5
					v40.99l35.5,20.5l35.5-20.5V243.5L245.92,223.01L245.92,223.01z"/>
			</g>
			<g>
				<polygon class="st1" points="211.92,242.63 211.92,203.37 245.92,183.74 279.92,203.37 279.92,242.63 245.92,262.26 				"/>
				<path class="st2" d="M245.92,185.47l32.5,18.76v37.53l-32.5,18.76l-32.5-18.76v-37.53L245.92,185.47 M245.92,182.01l-35.5,20.5
					v40.99l35.5,20.5l35.5-20.5V202.5L245.92,182.01L245.92,182.01z"/>
			</g>
			<g>
				<polygon class="st1" points="211.92,201.63 211.92,162.37 245.92,142.74 279.92,162.37 279.92,201.63 245.92,221.26 				"/>
				<path class="st2" d="M245.92,144.47l32.5,18.76v37.53l-32.5,18.76l-32.5-18.76v-37.53L245.92,144.47 M245.92,141.01l-35.5,20.5
					v40.99l35.5,20.5l35.5-20.5V161.5L245.92,141.01L245.92,141.01z"/>
			</g>
			<g>
				<polygon class="st1" points="211.92,160.63 211.92,121.37 245.92,101.74 279.92,121.37 279.92,160.63 245.92,180.26 				"/>
				<path class="st2" d="M245.92,103.47l32.5,18.76v37.53l-32.5,18.76l-32.5-18.76v-37.53L245.92,103.47 M245.92,100.01l-35.5,20.5
					v40.99l35.5,20.5l35.5-20.5V120.5L245.92,100.01L245.92,100.01z"/>
			</g>
			<g>
				<polygon class="st1" points="211.92,119.63 211.92,80.37 245.92,60.74 279.92,80.37 279.92,119.63 245.92,139.26 				"/>
				<path class="st2" d="M245.92,62.47l32.5,18.76v37.53l-32.5,18.76l-32.5-18.76V81.24L245.92,62.47 M245.92,59.01l-35.5,20.5
					v40.99l35.5,20.5l35.5-20.5V79.5L245.92,59.01L245.92,59.01z"/>
			</g>
		</g>
		<g>
			<polygon class="st1" points="175.92,139.63 175.92,100.37 209.92,80.74 243.92,100.37 243.92,139.63 209.92,159.26 			"/>
			<path class="st2" d="M209.92,82.47l32.5,18.76v37.53l-32.5,18.76l-32.5-18.76v-37.53L209.92,82.47 M209.92,79.01l-35.5,20.5
				v40.99l35.5,20.5l35.5-20.5V99.5L209.92,79.01L209.92,79.01z"/>
		</g>
		<g>
			<polygon class="st1" points="139.92,160.63 139.92,121.37 173.92,101.74 207.92,121.37 207.92,160.63 173.92,180.26 			"/>
			<g>
				<path class="st2" d="M173.92,103.47l32.5,18.76v37.53l-32.5,18.76l-32.5-18.76v-37.53L173.92,103.47 M173.92,100.01l-35.5,20.5
					v40.99l35.5,20.5l35.5-20.5V120.5L173.92,100.01L173.92,100.01z"/>
			</g>
		</g>
		<path class="st3" d="M613.57,341h-96.88c-11.38,0-20.6-9.22-20.6-20.6V84.6c0-11.38,9.22-20.6,20.6-20.6h96.88
			c11.38,0,20.6,9.22,20.6,20.6v235.8C634.17,331.78,624.94,341,613.57,341z"/>
		<path class="st4" d="M584.14,281.97h-38.03c-11.38,0-20.6-9.22-20.6-20.6V143.63c0-11.38,9.22-20.6,20.6-20.6h38.03
			c11.38,0,20.6,9.22,20.6,20.6v117.73C604.74,272.74,595.51,281.97,584.14,281.97z"/>
		<g>
			<g>
				<path class="st5" d="M728.9,65.41c-12.37-0.4-23.84,5.77-32.18,14.59c-9.46,10.01-14.47,22.99-16.87,36.39
					c-2.67,14.97-2.6,30.32-3.06,45.47c-0.5,16.61-1.01,33.23-1.51,49.84c-0.5,16.43-1,32.86-1.49,49.29
					c-0.23,7.57-1.01,15.39,0.17,22.91c0.52,3.33,1.58,6.58,3.34,9.47c1.87,3.08,4.39,5.7,6.46,8.63
					c4.09,5.79,5.39,12.96,9.15,18.93c3.35,5.31,8.03,9.69,13.34,13c12,7.48,26.46,8.96,40.24,7.14
					c13.03-1.73,26.74-5.57,37.8-12.89c4.89-3.23,9.28-7.26,12.45-12.22c3.77-5.89,5.19-12.7,5.73-19.58
					c0.64-8.14,0.75-16.35,1.07-24.51c0.33-8.21,0.65-16.41,0.98-24.62c0.65-16.32,1.38-32.63,1.9-48.96
					c1-31.39,0.81-63.23-6.64-93.93c-1.44-5.95-3.12-12.1-6.59-17.23c-3.48-5.14-8.54-8.39-14.75-9.06
					c-6.79-0.74-13.5,1.34-20.24,1.75c-3.38,0.2-6.65-0.07-9.88-1.14c-3.56-1.18-6.84-3.05-10.22-4.64
					c-12.86-6.05-27.88-7.06-41.4-2.58c-5.17,1.72-13.01,4.63-13.61,11.03c-0.6,6.35,6.72,8.65,8.94,13.71
					c2.55,5.83-0.63,12.74-3.99,17.52c-3.67,5.22-8.64,9.4-12.13,14.78c-3.49,5.37-4.76,11.41-3.26,17.67
					c1.51,6.34,5.08,11.94,7.3,18.03c2.15,5.93,2.23,11.81,0.58,17.87c-1.59,5.86-4.26,11.35-6.59,16.93
					c-2.29,5.48-4.35,11.17-4.69,17.15c-0.4,6.91,2.24,13.1,4.6,19.44c1.16,3.11,2.25,6.33,2.54,9.65
					c0.32,3.57-0.31,7.08-1.33,10.48c-1.92,6.4-5.34,12.48-6.35,19.14c-0.78,5.13-0.23,10.68,2.25,15.3
					c1.09,2.03,2.62,3.83,4.54,5.12c0.95,0.64,2.02,1.13,3.11,1.46c1.5,0.46,3.05,0.41,4.57,0.7c3.53,0.69,2.85,5.07,2.79,7.79
					c-0.09,3.74-0.2,7.48,0.1,11.21c0.53,6.77,2.46,13.44,7.44,18.29c4.35,4.23,10.53,6.45,16.43,4.3
					c5.63-2.06,9.81-7.17,15.72-8.52c3.85-0.89,7.84,0.26,11.49,1.49c3.08,1.04,6.12,2.17,9.25,3.06c6.13,1.73,12.5,2.87,18.88,2.91
					c5.96,0.04,11.95-0.93,17.38-3.43c5.15-2.37,11.6-6.87,12.38-12.94c0.8-6.19-4.89-10.16-6.21-15.73
					c-1.02-4.33,1.9-7.66,5.05-10.19c7.19-5.78,17.46-10.33,17.05-21.16c-0.41-10.8-9.26-19.11-10.8-29.65
					c-1.67-11.44,9.44-18.78,13.21-28.5c1.89-4.86,1.33-9.86-0.89-14.5c-2.18-4.55-5.51-8.4-8.33-12.54
					c-2.46-3.62-5.03-7.97-3.88-12.52c1.47-5.81,7.61-8.62,11.7-12.36c3.72-3.41,6.83-9.71,4.21-14.61
					c-0.52-0.98-1.58-2.48-2.8-2.55c-1.4-0.08-2.62,0.23-4.04-0.13c-2.5-0.63-4.58-2.22-6.25-4.14c-9.78-11.23-2.16-26.5-2.87-39.5
					c-0.75-13.77-10.25-24.67-19.9-33.61c-2.41-2.23-4.89-4.57-7.97-5.83c-3.04-1.24-6.36-1.12-9.39,0.09
					c-5.93,2.39-10.17,7.8-13.37,13.13c-6.4,10.66-8.96,23.43-8.01,35.77c0.48,6.18,1.78,12.3,3.94,18.11
					c2.24,6.03,5.45,11.46,9.09,16.74c6.61,9.6,16.34,21.13,12.7,33.64c0.73-0.3,1.47-0.6,2.2-0.9c-3.7-1.82-7.39-3.64-11.09-5.46
					c-0.7-0.35-1.65-0.22-2.05,0.54c-4.42,8.35-0.84,17.13,3.14,24.86c2.22,4.32,4.68,8.54,6.53,13.04
					c1.74,4.23,3.28,9.21,2.16,13.79c-0.6,2.46-2.1,4.81-4.72,5.38c-2.07,0.45-4.31-0.22-5.19-2.24c-0.37-0.85-1.78-0.99-2.36-0.3
					c-6.93,8.29-3.63,19.9,0.71,28.59c4.28,8.58,12.33,20.86,5.17,30.04c-2.31,2.96-6.2,5.63-10.13,5.13
					c-4.82-0.61-6.39-5.78-6.82-9.9c-0.51-4.9-0.32-9.76-3.06-14.09c-2.37-3.74-6.61-6.46-11-4.3c-2.77,1.36-6.44,7.14-9.86,4.17
					c-2.77-2.41-2.89-7.47-2.01-10.72c1.23-4.5,3.2-9.23,2.16-13.97c-0.49-2.25-1.83-4.15-3.74-5.42c-2.17-1.45-5.08-1.91-6.47-4.32
					c-2.49-4.3,0.23-9.74,2.29-13.59c2.54-4.74,4.97-9.75,3.32-15.22c-1.33-4.42-4.48-7.94-6.62-11.95
					c-1.96-3.68-2.3-7.51-0.23-11.21c3.82-6.83,11.7-10.88,14.07-18.65c0.7-2.29,0.67-4.66,0.23-7c-0.53-2.84-1.65-5.58-1.79-8.49
					c-0.23-4.85,1.78-9.66,5.19-13.08c1.64-1.64,3.6-2.95,5.77-3.77c1.79-0.67,1.02-3.57-0.8-2.89c-4.75,1.78-8.65,5.32-10.94,9.85
					c-2.4,4.76-2.69,9.79-1.38,14.9c0.71,2.77,1.68,5.63,1.11,8.53c-0.38,1.92-1.27,3.64-2.38,5.24c-2.32,3.35-5.46,6.03-8.14,9.07
					c-2.67,3.02-5.01,6.44-5.39,10.56c-0.44,4.7,2.16,8.82,4.61,12.59c1.3,1.99,2.67,4.01,3.51,6.26c0.96,2.59,0.93,5.17,0.07,7.78
					c-1.72,5.24-5.47,9.5-6.24,15.09c-0.33,2.38-0.18,4.85,0.9,7.03c1.23,2.48,3.45,3.68,5.85,4.82c2.32,1.1,4.03,2.53,4.39,5.19
					c0.33,2.39-0.26,4.87-0.88,7.16c-0.62,2.32-1.53,4.58-1.82,6.96c-0.26,2.13-0.12,4.35,0.45,6.42c0.98,3.58,3.64,7.1,7.75,6.59
					c2.39-0.3,4.15-1.84,5.88-3.39c1.65-1.47,3.56-2.93,5.87-2.05c4.7,1.79,5.72,7.91,6.01,12.23c0.34,4.9,0.6,10.55,4.5,14.1
					c3.22,2.93,7.62,3.1,11.49,1.42c4.02-1.75,7.31-5.23,8.95-9.28c2.05-5.05,0.95-10.93-0.88-15.88
					c-3.76-10.2-12.31-20.13-10.53-31.68c0.38-2.47,1.34-4.81,2.95-6.73c-0.79-0.1-1.57-0.2-2.36-0.3c1.88,4.29,7.9,4.85,11.43,2.36
					c4.52-3.19,4.91-9.47,4-14.44c-1.87-10.12-8.66-18.34-12.19-27.83c-1.83-4.92-2.51-10.12,0.03-14.92
					c-0.68,0.18-1.37,0.36-2.05,0.54c3.7,1.82,7.39,3.64,11.09,5.46c0.87,0.43,1.92,0.08,2.2-0.9c4.66-16.05-9.53-29.57-17.04-42.11
					c-7.79-13.01-10.61-29.08-7.63-43.96c1.47-7.37,4.34-14.41,8.66-20.56c2.31-3.3,5.15-6.42,8.78-8.28
					c3.86-1.97,7.73-1.41,11.18,1.1c3.32,2.41,6.3,5.52,9.14,8.46c2.84,2.94,5.51,6.05,7.78,9.46c2.2,3.32,4.01,6.9,5.09,10.74
					c1.23,4.39,1.28,8.9,0.82,13.42c-0.85,8.42-3.43,17.21-0.88,25.57c1.84,6.05,6.21,12.48,12.76,13.93
					c1.64,0.36,3.26,0.35,4.91,0.11c-0.49-0.13-0.97-0.26-1.46-0.39c3.64,3.11,1.11,8.69-1.56,11.58c-3.29,3.56-7.84,5.7-10.85,9.57
					c-2.58,3.32-3.5,7.46-2.47,11.54c0.95,3.77,3.23,7.1,5.47,10.22c4.59,6.39,10.69,13.45,7.93,21.86
					c-2.79,8.49-10.83,14.17-13.2,22.91c-2.42,8.93,2.67,17.38,6.46,25.1c1.79,3.65,3.66,7.6,3.86,11.73
					c0.19,3.93-1.44,7.34-4.18,10.09c-2.75,2.75-6.09,4.79-9.23,7.03c-2.86,2.04-5.9,4.32-7.59,7.49c-1.96,3.7-1.44,7.72,0.47,11.33
					c2.08,3.95,6.35,8.25,4.05,13.01c-2.12,4.39-7.34,7.54-11.73,9.24c-4.6,1.78-9.52,2.45-14.43,2.41
					c-5.15-0.04-10.26-0.82-15.26-2.06c-5.43-1.34-10.56-3.65-15.98-4.97c-3-0.73-6.14-1.03-9.18-0.33
					c-2.39,0.55-4.6,1.73-6.65,3.04c-4.02,2.58-8.06,6.25-13.12,6.25c-5.07-0.01-9.55-3.53-12.21-7.62
					c-3.22-4.95-3.9-11.03-3.99-16.81c-0.05-3.08,0.07-6.16,0.12-9.23c0.04-2.33-0.08-4.91-1.64-6.78
					c-1.78-2.14-4.41-1.88-6.88-2.34c-1.83-0.35-3.47-1.22-4.79-2.54c-2.81-2.8-4.01-6.98-4.26-10.84
					c-0.33-5.02,1.15-9.64,2.91-14.28c2.02-5.36,4.32-10.66,4.98-16.4c0.66-5.77-1.02-11.22-3.05-16.55
					c-1.95-5.11-4.07-10.24-4.05-15.8c0.01-4.88,1.41-9.62,3.12-14.15c3.47-9.16,8.68-18.01,9.38-27.98
					c0.37-5.23-0.94-10.19-2.96-14.97c-2.05-4.86-4.7-9.52-6.04-14.64c-1.37-5.23-0.61-10.26,2.15-14.9
					c2.7-4.54,6.54-8.27,9.97-12.25c6.07-7.05,11.96-18.67,4.91-27.08c-2.47-2.95-8.7-6.29-5.98-10.91c1.27-2.17,3.68-3.55,5.9-4.57
					c2.64-1.22,5.43-2.16,8.25-2.89c11.31-2.93,23.68-2.07,34.4,2.66c5.37,2.38,10.47,5.67,16.38,6.55
					c5.46,0.81,10.91-0.19,16.32-0.97c5.21-0.75,10.94-1.4,15.85,0.98c4.47,2.16,7.35,6.31,9.34,10.72
					c2.24,4.96,3.44,10.38,4.61,15.67c1.42,6.39,2.55,12.85,3.41,19.34c1.7,12.76,2.42,25.65,2.61,38.51
					c0.39,26.35-1.18,52.73-2.22,79.05c-0.54,13.59-1.08,27.17-1.62,40.76c-0.25,6.25-0.3,12.61-1.87,18.7
					c-1.29,5.01-3.75,9.57-7.23,13.41c-6.71,7.39-16.1,11.9-25.46,14.93c-11.78,3.81-24.44,6.12-36.83,4.73
					c-10.43-1.17-20.73-5.43-28.2-12.94c-3.84-3.86-6.46-8.38-8.45-13.41c-1.11-2.81-2.15-5.66-3.57-8.34
					c-1.35-2.56-3.14-4.82-4.95-7.07c-1.82-2.27-3.63-4.59-4.8-7.27c-1.16-2.65-1.73-5.56-1.99-8.43
					c-0.55-6.25-0.04-12.61,0.15-18.87c0.41-13.51,0.82-27.02,1.23-40.53c0.81-26.8,1.36-53.62,2.47-80.4
					c0.94-22.52,4.17-47.08,22.22-62.71c7.28-6.31,16.49-10.35,26.22-10.04C730.83,68.47,730.83,65.47,728.9,65.41L728.9,65.41z"/>
			</g>
		</g>
		<g>
			<g>
				<path class="st6" d="M316.25,258.33c2.88-7.26,4.58-14.85,5.36-22.55c0.61-7.7,0.27-15.51-1.62-22.96
					c-0.17-0.94-0.52-1.84-0.79-2.76l-0.86-2.74c-0.66-1.79-1.45-3.53-2.18-5.29c-1.67-3.51-3.34-7.06-4.9-10.64
					c-3.15-7.17-6-14.49-8.36-22.01c-1.17-3.76-2.2-7.57-3.12-11.42c-0.9-3.85-1.62-7.76-2.18-11.69
					c-0.51-3.94-0.93-7.91-1.06-11.91c-0.09-3.99-0.04-8.01,0.35-12.01c0.62-8.02,2.55-15.95,5.47-23.49
					c3.01-7.51,7.19-14.55,12.28-20.79c1.34-1.52,2.57-3.12,4.05-4.52l2.15-2.15l2.29-2.01c3.11-2.62,6.44-5.03,10.1-6.86
					c3.63-1.86,7.47-3.39,11.47-4.25c3.98-0.89,8.06-1.29,12.1-1.2c4.05,0.07,8.05,0.74,11.93,1.72c3.87,1.01,7.65,2.34,11.24,4.05
					c3.59,1.69,7.06,3.62,10.36,5.8c3.31,2.17,6.39,4.64,9.38,7.21c5.97,5.14,11.16,11.17,15.52,17.74
					c4.35,6.54,7.9,13.58,11.02,20.77c0.79,1.79,1.47,3.63,2.22,5.44c0.72,1.82,1.35,3.67,2.04,5.51l1.93,5.54l1.83,5.56
					c2.41,7.41,4.66,14.85,7.68,21.83l1.23,2.55c0.21,0.42,0.4,0.86,0.62,1.27l0.7,1.22c0.48,0.8,0.89,1.65,1.42,2.4l1.58,2.27
					c2.29,3.05,4.77,6.13,7.1,9.28c4.71,6.3,9.07,12.95,12.72,20.03c3.69,7.06,6.55,14.6,8.57,22.37c0.98,3.9,1.71,7.85,2.22,11.84
					c0.5,3.99,0.7,8.02,0.74,12.04c-0.05,8.04-0.96,16.08-2.8,23.88c-1.8,7.82-4.49,15.55-8.2,22.71
					c-7.34,14.42-18.23,26.79-30.92,36.58c-6.4,4.85-13.23,9.12-20.46,12.6c-7.21,3.52-14.83,6.27-22.72,7.99
					c-7.89,1.69-16.1,2.45-24.27,1.26c-8.01-1.17-15.79-3.52-22.99-7.21c-7.18-3.69-13.64-8.83-18.61-15.13
					c-4.98-6.29-8.48-13.62-10.55-21.22c-1.06-3.8-1.8-7.67-2.27-11.57c-0.28-1.94-0.39-3.9-0.55-5.85
					c-0.06-0.98-0.07-1.96-0.11-2.93c-0.04-0.98-0.07-1.95-0.05-2.93C314.3,273.84,314.96,266.11,316.25,258.33z M316.92,258.53
					c-1.12,7.59-1.78,15.41-1.56,23.13c0.01,0.97,0.08,1.93,0.14,2.9c0.07,0.96,0.12,1.93,0.21,2.89c0.22,1.92,0.39,3.84,0.73,5.74
					c0.27,1.91,0.69,3.79,1.09,5.67c0.5,1.86,0.96,3.73,1.6,5.54c1.22,3.63,2.68,7.19,4.56,10.5c1.88,3.31,4.09,6.41,6.61,9.22
					c5.03,5.64,11.3,10.02,18.15,13.04c6.85,3.03,14.3,4.71,21.71,5.51c3.64,0.35,7.35,0.32,11.05-0.09
					c3.69-0.37,7.38-0.97,11.01-1.88c14.52-3.67,28.28-10.65,40.14-19.93c5.96-4.61,11.44-9.82,16.35-15.5
					c4.9-5.7,9.11-11.95,12.65-18.54c3.54-6.61,6.12-13.65,7.92-20.96c1.85-7.32,2.8-14.82,2.97-22.33
					c0.02-3.76-0.11-7.51-0.52-11.25c-0.42-3.73-1.05-7.44-1.87-11.12c-1.72-7.33-4.3-14.47-7.57-21.33
					c-3.28-6.85-7.25-13.4-11.58-19.76c-2.17-3.2-4.45-6.27-6.7-9.54l-1.65-2.59c-0.55-0.86-0.96-1.79-1.44-2.68l-0.7-1.35
					c-0.22-0.45-0.4-0.92-0.61-1.37l-1.19-2.75c-2.9-7.42-4.89-14.98-7.03-22.44l-1.62-5.59c-0.58-1.85-1.12-3.71-1.72-5.54
					c-0.64-1.82-1.23-3.67-1.9-5.48c-0.7-1.8-1.33-3.63-2.08-5.41c-2.88-7.16-6.4-14.06-10.61-20.52c-2.08-3.23-4.44-6.26-6.99-9.13
					c-2.54-2.88-5.3-5.57-8.22-8.05c-5.84-4.98-12.4-9.11-19.41-12.09c-7.03-2.91-14.55-4.62-22.03-4.5c-3.73,0.08-7.43,0.6-11,1.58
					c-3.58,0.94-6.97,2.49-10.16,4.32c-6.44,3.65-11.82,8.96-16.42,14.83c-4.63,5.91-8.24,12.53-11.04,19.44l-0.95,2.64l-0.47,1.32
					l-0.4,1.34l-0.8,2.69l-0.66,2.73c-0.24,0.9-0.41,1.82-0.59,2.75c-0.18,0.92-0.38,1.83-0.54,2.76c-0.26,1.86-0.6,3.71-0.75,5.58
					c-0.43,3.74-0.54,7.52-0.51,11.3c-0.02,3.78,0.25,7.57,0.6,11.36c0.4,3.79,0.97,7.56,1.62,11.33c0.7,3.76,1.5,7.51,2.45,11.24
					c1.89,7.45,4.22,14.82,6.91,22.07c1.34,3.63,2.77,7.23,4.23,10.83c0.66,1.88,1.39,3.72,1.98,5.6l0.75,2.87
					c0.23,0.96,0.54,1.9,0.67,2.88c1.5,7.75,1.71,15.68,0.82,23.45C321.62,243.62,319.87,251.35,316.92,258.53z"/>
			</g>
			<path class="st6" d="M394.04,140.81c-1.03-1.96-10.17-18.69-24.9-17.68c-13.87,0.94-24.03,17-24.9,30.32
				c-0.44,6.68,1.7,9.19,6.23,22.74c7.09,21.2,10.86,32.46,10.38,45.47c-0.73,19.85-10.61,23.87-8.3,42.95
				c0.57,4.74,1.81,13.97,8.3,20.21c0.55,0.53,7.85,7.33,16.6,5.05c6.24-1.63,9.78-7,16.6-17.68c8.83-13.82,7.6-17.66,14.53-25.26
				c7.54-8.28,10.98-5.91,14.53-12.63c4.88-9.26,3.77-24.01-2.08-32.84c-4.99-7.55-9.4-4.66-14.53-12.63
				c-3.48-5.42-2.63-8.61-6.23-25.26C397.6,151.22,396.27,145.05,394.04,140.81z"/>
		</g>
	</g>
</g>
</svg>
