<?xml version="1.0" encoding="utf-8"?>
<!-- Generator: Adobe Illustrator 25.0.1, SVG Export Plug-In . SVG Version: 6.00 Build 0)  -->
<svg version="1.1" id="Layer_1" xmlns="http://www.w3.org/2000/svg" xmlns:xlink="http://www.w3.org/1999/xlink" x="0px" y="0px"
	 viewBox="0 0 212.32 297" style="enable-background:new 0 0 212.32 297;" xml:space="preserve">
<style type="text/css">
	.st0{fill:#C9A88F;}
	.st1{fill:#FFFFFF;}
	.st2{fill:#A3A0A0;}
	.st3{fill:#BFBFBF;}
	.st4{fill:#FCF6BD;}
	.st5{fill:#222222;}
	.st6{fill:none;stroke:#222222;stroke-miterlimit:10;}
	.st7{fill:#E9FF94;}
</style>
<g>
	<path class="st0" d="M186.84,297H25.48C11.41,297,0,285.59,0,271.52V43.17C0,29.1,11.41,17.69,25.48,17.69h161.36
		c14.07,0,25.48,11.41,25.48,25.48v228.35C212.32,285.59,200.91,297,186.84,297z"/>
</g>
<g>
	<rect x="20.72" y="30.22" class="st1" width="170.87" height="254.99"/>
</g>
<g>
	<rect x="55.68" y="38.32" class="st2" width="100.97" height="11.05"/>
</g>
<g>
	<rect x="55.68" class="st3" width="100.97" height="38.32"/>
</g>
<g>
	<circle class="st4" cx="106.16" cy="16.58" r="9.21"/>
</g>
<g>
	<g>
		<path class="st5" d="M38.6,89.41c3.8-1.33,8.01-0.47,11.2,1.94c1.55,1.17,2.85,2.73,3.64,4.52c0.83,1.9,0.8,4.21,2.43,5.7
			c3.97,3.61,7.64-2.4,8.95-5.48c1.79-4.22,4.84-8.02,9.07-9.97c3.98-1.83,9.04-1.6,12.61,1.04c1.78,1.32,2.86,3.65,5.26,3.93
			c2.07,0.24,3.52-1.24,4.72-2.72c1.29-1.58,2.46-2.89,4.69-2.47c2.49,0.47,4.22,2.39,5.62,4.35c1.44,2,2.74,4.11,4.55,5.82
			c1.5,1.42,3.25,2.6,5.14,3.45c9.18,4.13,20.04,1.83,29.35-0.67c1.86-0.5,1.07-3.39-0.8-2.89c-8.26,2.22-17.84,4.41-26.17,1.32
			c-1.82-0.68-3.56-1.69-5.02-2.99c-1.91-1.7-3.2-3.85-4.7-5.9c-2.57-3.51-7.08-7.18-11.69-4.96c-1.93,0.93-2.77,2.84-4.31,4.19
			c-1.64,1.44-3.09-1.42-4.26-2.38c-3.53-2.91-8.27-3.85-12.72-2.99c-4.54,0.87-8.41,3.83-11.15,7.47c-1.41,1.87-2.32,3.89-3.29,6
			c-0.47,1.02-1.96,4.32-3.52,3.85c-0.99-0.3-1.14-2.06-1.35-2.87c-0.29-1.11-0.72-2.2-1.28-3.2c-1.12-2.01-2.76-3.7-4.65-5
			c-3.78-2.6-8.78-3.51-13.14-1.98C35.99,87.16,36.77,90.05,38.6,89.41L38.6,89.41z"/>
	</g>
</g>
<g>
	<g>
		<path class="st5" d="M40.78,134.8c-0.38-1.49,0.54-2.85,1.76-3.64c1.51-0.97,3.35-0.79,4.97-0.21c3.66,1.31,6.21,4.6,9.26,6.85
			c1.54,1.13,3.27,2.01,4.92,0.54c1.35-1.2,2.26-2.95,3.21-4.46c1.42-2.26,4.45-5.95,7.33-3.5c1.98,1.69,2.71,4.71,3.9,6.94
			c0.7,1.32,1.58,2.76,2.89,3.55c1.62,0.97,3.47,0.52,5.02-0.36c3.19-1.82,4.91-5.36,8.09-7.16c1.75-0.98,3.27-0.82,4.97,0.13
			c1.57,0.88,3.14,1.73,4.99,1.61c3.85-0.24,6.36-3.59,9.94-4.51c4.36-1.11,8.82,1.85,12.28,4.12c1.62,1.06,3.12-1.53,1.51-2.59
			c-3.41-2.24-7.17-4.48-11.34-4.73c-4.09-0.24-6.82,2.2-10.22,3.97c-1.58,0.83-3.02,0.97-4.62,0.12c-1.7-0.9-3.29-1.94-5.31-1.85
			c-4.14,0.19-6.71,3.58-9.36,6.29c-1,1.02-3.28,3.41-4.76,2.11c-1.09-0.96-1.73-2.62-2.32-3.91c-1.14-2.47-2.27-5.42-4.81-6.78
			c-3.41-1.82-7.07,0.08-9.27,2.86c-1.23,1.56-2.11,3.35-3.3,4.94c-0.16,0.22-0.6,0.97-0.85,1c-0.27,0.03-1.02-0.66-1.21-0.79
			c-0.89-0.65-1.72-1.38-2.54-2.11c-3.22-2.86-6.99-6.14-11.62-5.72c-3.94,0.35-7.46,4.01-6.42,8.09
			C38.36,137.46,41.25,136.67,40.78,134.8L40.78,134.8z"/>
	</g>
</g>
<g>
	<g>
		<path class="st5" d="M36.91,172.74c6.82-1.83,14.55,0.84,18.68,6.6c0.68,0.95,1.92,0.97,2.59,0c2.54-3.67,5.28-7.6,9.34-9.72
			c4.57-2.38,9.85-1.3,14.35,0.69c2.45,1.08,4.79,2.41,7.08,3.79c2.2,1.33,4.19,2.36,6.81,1.6c2.24-0.65,4.23-1.74,6.55-2.15
			c1.97-0.35,4.05-0.36,6.03-0.09c4.75,0.64,9.17,2.91,12.37,6.47c1.29,1.44,3.41-0.69,2.12-2.12c-6.12-6.8-16.55-9.42-25.12-6.09
			c-1.15,0.45-2.36,1.17-3.61,1.28c-1.43,0.12-2.68-0.91-3.83-1.6c-2.42-1.45-4.89-2.83-7.48-3.93c-4.86-2.07-10.34-3.15-15.39-1.08
			c-5.26,2.16-8.68,6.93-11.81,11.44c0.86,0,1.73,0,2.59,0c-4.92-6.87-13.87-10.18-22.07-7.98
			C34.25,170.35,35.04,173.24,36.91,172.74L36.91,172.74z"/>
	</g>
</g>
<g>
	<g>
		<path class="st5" d="M44.88,208.07c2.37-1.17,5.16-1.02,7.56,0.01c1.2,0.52,2.31,1.26,3.25,2.17c1.02,0.99,1.63,2.22,2.53,3.3
			c2.18,2.61,5.65,1.81,7.9-0.26c1.1-1.01,1.9-2.3,3.03-3.29c1.06-0.94,2.38-1.5,3.77-1.76c6.23-1.17,11.65,3.19,16.34,6.6
			c1.27,0.92,2.55,1.83,3.89,2.65c1.32,0.8,2.89,1.84,4.51,1.55c1.4-0.26,2.22-1.36,2.99-2.46c0.86-1.23,1.6-2.55,2.44-3.79
			c1.96-2.89,4.64-4.54,8.22-4.06c3.57,0.47,6.87,2.36,9.87,4.22c1.65,1.02,3.15-1.58,1.51-2.59c-5.11-3.16-12.21-6.79-18.06-3.3
			c-2.63,1.57-4.15,4.25-5.75,6.76c-0.39,0.61-0.77,1.28-1.25,1.82c-0.52,0.6-0.84,0.44-1.5,0.12c-1.65-0.81-3.19-1.93-4.68-3
			c-5.08-3.65-10.2-7.75-16.79-7.67c-2.94,0.03-5.81,1.01-7.94,3.08c-1.14,1.11-2,2.6-3.34,3.5c-0.49,0.33-1.12,0.63-1.73,0.59
			c-0.95-0.06-1.39-0.93-1.85-1.64c-3.51-5.33-10.49-8.07-16.43-5.13C41.64,206.34,43.16,208.93,44.88,208.07L44.88,208.07z"/>
	</g>
</g>
<g>
	<g>
		<path class="st5" d="M41.85,248.67c-0.98-1.07-0.43-2.87,0.65-3.66c1.5-1.11,3.66-0.84,5.28-0.16c3.3,1.39,5.39,4.61,7.02,7.65
			c1.58,2.97,2.81,6.8,6.2,8.2c1.57,0.65,3.37,0.34,4.57-0.9c1.19-1.22,1.47-2.98,1.63-4.61c0.47-4.76,0.84-9.54,1.26-14.31
			c0.1-1.14,0.2-2.28,0.3-3.41c0.05-0.57,0.09-1.14,0.15-1.71c0.02-0.16,0-0.41,0.06-0.56c0.14-0.38-0.06-0.2,0.2-0.16
			c0.75,0.12,1.48,1.12,1.95,1.63c0.66,0.73,1.27,1.5,1.82,2.32c2.21,3.24,3.71,6.89,5.25,10.48c0.75,1.76,1.46,3.58,2.38,5.26
			c0.84,1.53,2.41,2.61,4.2,2.05c1.75-0.55,2.86-2.34,3.46-3.97c0.57-1.55,0.43-3.53,1.58-4.84c0.52-0.6,0.96-0.4,1.5,0.12
			c0.85,0.81,1.6,1.76,2.37,2.64c1.78,2.06,3.51,4.16,5.17,6.32c0.48,0.63,1.29,1.01,2.05,0.54c1.52-0.94,2.29-2.43,2.93-4.04
			c0.42-1.07,0.81-3.12,2.01-3.64c1-0.44,2.18,0.4,3,0.91c1.12,0.68,2.21,1.41,3.27,2.18c2.2,1.59,4.25,3.37,6.18,5.28
			c1.37,1.36,3.49-0.76,2.12-2.12c-2.11-2.09-4.37-4.01-6.78-5.75c-2.16-1.56-4.98-3.93-7.83-3.55c-1.96,0.26-3.17,1.76-3.92,3.48
			c-0.64,1.49-1.01,3.75-2.49,4.67c0.68,0.18,1.37,0.36,2.05,0.54c-1.53-1.98-3.09-3.94-4.71-5.85c-1.34-1.58-2.79-3.84-4.71-4.75
			c-3.85-1.83-5.79,2.85-6.33,5.77c-0.14,0.73-1.26,4.25-2.33,2.84c-0.56-0.74-0.9-1.8-1.28-2.64c-0.47-1.04-0.92-2.08-1.36-3.13
			c-1.63-3.82-3.25-7.72-5.74-11.09c-1.15-1.56-2.5-3.4-4.3-4.25c-1.84-0.88-3.96-0.29-4.54,1.8c-0.29,1.02-0.27,2.18-0.37,3.23
			c-0.12,1.38-0.24,2.76-0.36,4.14c-0.23,2.6-0.46,5.2-0.69,7.8c-0.2,2.25-0.17,4.68-0.68,6.89c-0.16,0.68-0.45,1.67-1.29,1.75
			c-0.72,0.07-1.44-0.61-1.9-1.08c-1.38-1.4-2.06-3.28-2.93-5.01c-0.89-1.76-1.88-3.48-3.08-5.05c-2.66-3.48-6.78-6.36-11.37-5.49
			c-4.2,0.79-6.86,5.93-3.72,9.36C41.04,252.22,43.15,250.09,41.85,248.67L41.85,248.67z"/>
	</g>
</g>
<rect x="156.84" y="81.44" class="st6" width="21.37" height="21.37"/>
<rect x="156.84" y="121.05" class="st6" width="21.37" height="21.37"/>
<rect x="156.84" y="160.66" class="st6" width="21.37" height="21.37"/>
<rect x="156.84" y="200.27" class="st6" width="21.37" height="21.37"/>
<rect x="156.84" y="239.88" class="st6" width="21.37" height="21.37"/>
<g>
	<g>
		<path class="st7" d="M162.43,93.12c2.47,0.98,4.77,2.32,6.9,3.9c0.99,0.73,2.19-0.28,2.26-1.3c0.68-10.53,2.21-20.98,4.56-31.26
			c0.43-1.88-2.46-2.68-2.89-0.8c-2.42,10.54-3.98,21.27-4.67,32.06c0.75-0.43,1.5-0.86,2.26-1.3c-2.35-1.75-4.9-3.12-7.62-4.2
			C161.43,89.52,160.66,92.42,162.43,93.12L162.43,93.12z"/>
	</g>
</g>
<g>
	<g>
		<path class="st7" d="M164.55,172.65c2.14,1.23,4.04,2.83,5.54,4.81c0.91,1.2,2.65,0.79,2.8-0.76c0.87-9.04,4.01-17.74,9.01-25.31
			c1.07-1.61-1.53-3.12-2.59-1.51c-5.31,8.03-8.51,17.25-9.42,26.83c0.93-0.25,1.86-0.5,2.8-0.76c-1.82-2.4-4-4.38-6.62-5.88
			C164.39,169.1,162.88,171.69,164.55,172.65L164.55,172.65z"/>
	</g>
</g>
</svg>
