<?xml version="1.0" encoding="utf-8"?>
<!-- Generator: Adobe Illustrator 25.0.1, SVG Export Plug-In . SVG Version: 6.00 Build 0)  -->
<svg version="1.1" id="Layer_1" xmlns="http://www.w3.org/2000/svg" xmlns:xlink="http://www.w3.org/1999/xlink" x="0px" y="0px"
	 viewBox="0 0 366.83 354.2" style="enable-background:new 0 0 366.83 354.2;" xml:space="preserve">
<style type="text/css">
	.st0{fill:#C2CACF;}
	.st1{fill:#78C5E9;}
	.st2{fill:#FEFEFE;}
	.st3{fill:none;stroke:#F3A7E4;stroke-width:4;stroke-miterlimit:10;}
	.st4{fill:#E94F2C;}
	.st5{fill:#353535;}
	.st6{fill:#81C8F5;stroke:#5EA9E3;stroke-width:2;stroke-miterlimit:10;}
	.st7{fill:#FBF4BF;stroke:#5EA9E3;stroke-width:2;stroke-miterlimit:10;}
	.st8{fill:#57907F;}
	.st9{fill:#FC6A7A;}
</style>
<g>
	<g id="zybayG.tif">
		<g>
			<path class="st0" d="M81.55,183.8c-1.04-0.14-1.9-0.91-3.05-0.78c-0.5,0.06-0.94-0.43-1.05-0.98c-0.18-0.9,0.91-0.46,1.13-1.02
				c-0.17-0.53-0.93-0.68-0.89-1.35c7.05-0.25,14.1,0.19,21.15-0.35c2.83-0.22,2.85-0.05,2.83-2.79c-0.02-3.12-0.55-6.22-0.35-9.34
				c0.03-0.46,0.07-1.03-0.41-1.24c-1.14-0.49-1.01-0.98-0.4-1.94c1.08-1.73,0.36-2.84-1.69-2.79c-3.19,0.08-6.41-0.12-9.5,0.98
				c-0.44,0.16-0.91,0.01-1.34-0.21c-0.52-0.27-1.05-0.43-1.65-0.44c-4.39-0.08-8.77-0.05-13.16-0.25
				c-6.45-0.29-12.92-0.14-19.39-0.06c-5.43,0.07-10.87-0.38-16.28,0.32c-0.74,0.09-1.67,0-1.74,1c-0.08,0.98,0.92,0.88,1.52,1.05
				c1.63,0.47,3.28,0.61,4.94,0.12c0.52-0.15,1.17-0.15,1.27,0.5c0.09,0.62-0.67,0.46-1.04,0.68c-0.18,0.11-0.45,0.1-0.67,0.12
				c-2.4,0.24-4.8,0.51-7.21,0.68c-1.19,0.08-1.93,0.42-2.57,1.59c-0.81,1.48-0.13,3.18-1.11,4.63c-0.45,0.67-0.67,0.72-1.3,0.5
				c-1.11-0.38-1.42-1.42-1.94-2.27c-1.22-1.96-2.67-3.81-4.95-4.34c-2.29-0.53-4.75,0.07-7.05-0.78c-0.45-0.17-1.15,0.24-1.37-0.41
				c-0.23-0.66,0.41-0.79,0.85-1.07c0.52-0.33,0.96-0.62,0.18-1.41c-0.74-0.75-1.41-0.95-2.36-0.96c-1.54-0.01-3.07,0.15-4.6-0.53
				c-1.42-0.63-4.46,0.39-4.67,1.49c-0.29,1.57-1.05,3.03-1.02,4.68c0.05,3.42,0.12,6.84-0.02,10.25c-0.07,1.76,0.45,2.26,2.21,2.24
				c5.67-0.08,11.34,0.02,17.01,0.06c-0.12,0.76-1.15,1.41-0.17,2.31c0.27,0.24-0.11,0.61-0.42,0.81c-0.66,0.4-0.96,1-0.87,1.76
				c0.23,2.08-0.78,4.03-0.66,6.09c0.15,2.57-0.32,5.05-0.81,7.54c-0.34,1.73-0.82,3.52,0.59,5.08c0.31,0.35,0.17,0.75-0.11,1.11
				c-0.29,0.36-0.57,0.73-0.83,1.11c-1.65,2.45-1.16,3.54,1.82,3.98c1.1,0.16,1.9,0.87,2.73,1.44c0.82,0.57,0.27,1.14-0.44,1.29
				c-0.67,0.14-1.38,0.04-2.08,0.08c-0.37,0.02-0.94-0.18-1.04,0.33c-0.06,0.33,0.2,0.77,0.42,1.08c0.61,0.83,1.44,1.29,2.48,1.42
				c0.43,0.05,1,0.23,0.96,0.81c-0.05,0.68-0.67,0.48-1.1,0.5c-0.56,0.03-1.12,0.01-1.85,0.01c1.16,1.37,0.97,2.89-0.45,3.37
				c-1.42,0.49-1.22,1.13-0.58,2.01c1.01,1.39,0.63,3.91-0.75,4.89c-0.78,0.55-1.21,1.36-1.69,2.23c2.48,0.98,4.12,3.86,7.27,2.63
				c0.08,0.66-0.06,0.79-0.33,0.82c-2.14,0.27-2.72,1.23-2.01,3.4c0.21,0.66,0.51,1.29,0.75,1.94c0.25,0.67,0.17,1.26-0.53,1.62
				c-0.62,0.32-1.31,0.56-0.85,1.53c0.41,0.88,0.36,1.82,1.85,2.06c1.88,0.3,3.73,0.65,5.64,0.6c0.51-0.02,1.21-0.01,1.09,0.71
				c-0.1,0.56-0.85,0.44-1.19,0.29c-1.71-0.74-3.28,0.54-5.01,0.22c-1.7-0.31-2.29,1.67-3.5,2.46c-0.68,0.44-1.17,0.98-2.47,0.4
				c1,1.32,1.92,1.8,2.94,2.18c0.75,0.28,1.61,0.48,2.04,1.22c0.79,1.37-0.08,2.79-1.76,2.93c-1.77,0.15-3.55,0.26-5.37,0.55
				c2.04-0.7,2.93,1.46,4.63,1.79c0.66,0.13,1.14,1.7,1.5,2.68c0.18,0.49-0.46,0.55-0.86,0.54c-0.6-0.02-1.15,0.13-1.63,0.48
				c-0.16,0.12-0.33,0.35-0.34,0.54c-0.03,0.3,0.27,0.33,0.49,0.35c2.42,0.15,2.52,2.77,4.08,3.86c0.25,0.18-0.03,0.64-0.32,0.87
				c-0.41,0.32-0.84,0.61-1.22,0.96c-2.15,2.04-2.18,2.31-0.54,4.8c1.05,1.59,0.74,2.26-1.14,2.38c-0.98,0.06-1.96,0.01-2.94,0.01
				c0.18,2.37,3.03,2.5,3.61,4.61c0.33,1.19,0.82,2.33,0.45,3.51c-0.38,1.22,0.24,1.31,1.1,1.23c1.83-0.17,3.64,0.46,5.47,0.04
				c0.34-0.08,0.91-0.19,1.02,0.35c0.1,0.45-0.31,0.78-0.68,0.89c-0.82,0.24-1.53,0.72-2.39,0.93c-1.01,0.25-2.6-0.3-2.89,1.46
				c-1.06-0.28-2.04,0.43-2.96,0.4c-1.78-0.05-2.18,0.98-2.55,2.28c3.01,1.16,3.6,2.45,1.93,4.3c-0.76-0.37-0.12-1.21-0.67-1.78
				c-1.04,1.4-2.6,1.22-4.1,1.27c-0.41,0.01-1.07-0.17-1.02,0.56c0.04,0.54,0.61,0.42,0.99,0.44c0.4,0.03,0.81,0.04,1.21,0
				c1.23-0.12,1.82,0.37,1.36,1.6c-0.32,0.87,0,1.1,0.79,1.25c1.08,0.2,1.94,0.61,1.8,2.04c-0.14,1.35,0.31,2.89-1.68,3.26
				c-0.97,0.18-1.22,0.63-0.62,1.53c0.71,1.08,0.97,2.22,0.64,3.59c-0.29,1.21,0.11,2.11,1.69,2.44c1.98,0.41,4,0.46,5.96,0.87
				c0.5,0.1,1.35-0.01,1.21,0.88c-0.16,1-0.85,0.39-1.35,0.33c-1.86-0.25-3.7,0.03-5.5,0.41c-0.79,0.16-1.37,0.78-1.31,1.93
				c0.16,2.83,0.55,5.66,0.27,8.5c-0.07,0.67,0.3,1.07,0.71,1.5c0.96,1.01,0.67,1.89,0.05,3.08c-1.74,3.33-3.54,6.74-1.67,10.69
				c0.41,0.86,0.26,1.83,0.11,2.74c-0.35,2.05,0.15,3.03,2.08,3.55c0.77,0.2,1.54,1.2,2.16,0.72c0.74-0.57,0.47-1.8,0.68-2.74
				c0.18-0.81-0.13-2.15,0.92-2.12c1.34,0.04,0.8,1.45,0.78,2.26c-0.05,2.34,0.23,4.41,2.86,5.3c0.43,0.15,0.77,0.66,0.46,1.12
				c-0.29,0.44-0.73,0.07-1.09-0.08c-0.27-0.11-0.52-0.26-0.78-0.38c-1.94-0.89-2.96-0.44-3.43,1.56c-0.22,0.94,0.3,1.26,1.17,1.19
				c1.72-0.13,3.35-0.74,5.11-0.78c1.07-0.02,0.73-1.25,0.56-1.85c-0.49-1.7-1.17-3.34-1.79-5c-0.1-0.27-0.25-0.52-0.01-0.9
				c0.68,0.08,0.82,0.72,0.95,1.18c0.78,2.77,2.22,5,4.81,6.41c0.3,0.16,1,0.47,0.63,1c-0.35,0.52-0.87,0.03-1.23-0.16
				c-1.06-0.55-1.99-0.44-3.08,0.07c-3.39,1.58-6.87,0.92-10.29,0.08c-1.92-0.47-3.67-1.41-5.76-1.51
				c-2.62-0.13-4.38-2.07-5.72-4.08c-2.95-4.46-5.61-9.08-6.67-14.46c-0.23-1.16-0.29-2.54-1.28-3.5c-0.39-0.37-0.33-0.82-0.1-1.28
				c0.69-1.37,0.51-2.79,0.24-4.23c-0.53-2.87-0.18-5.74,0.27-8.56c0.58-3.63,0.52-7.35,1.66-10.91c0.44-1.39,1.71-2.44,1.45-4.14
				c-0.35-2.29-0.16-4.65-0.77-6.92c-0.28-1.06-1.66-1.95-0.87-3.14c1.4-2.09,1.24-4.67,2.56-6.87c0.74-1.23,0.92-3.57,0.27-5.27
				c-1.69-4.48-1.39-9.03-0.86-13.62c0.01-0.11,0.03-0.25,0.1-0.33c2.86-3.29,1.03-6.8,0.48-10.24c-0.35-2.2-0.87-4.37,1.13-6.11
				c0.33-0.29,0.26-0.7,0.23-1.13c-0.25-2.99-0.73-5.96-0.6-8.98c0.11-2.54-0.13-5-1.42-7.33c-1.06-1.92-0.66-4.19-0.91-6.29
				c-0.35-2.97-0.28-5.99-0.43-8.99c-0.08-1.65,0.15-3.14,1.07-4.62c0.66-1.06,0.69-2.57-0.05-3.63c-1.63-2.32-1.65-4.98-2.05-7.59
				c-0.44-2.87-0.34-5.76-0.36-8.65c0-0.23,0.08-0.52-0.03-0.69c-1.25-1.84,0.24-3.63,0.12-5.46c-0.04-0.7,0.5-1.42-0.26-2.06
				c-0.11-0.09-0.11-0.52,0-0.63c1.42-1.4,0.82-3.18,0.82-4.78c0.05-16.56,0.04-33.12,0.04-49.68c0-0.89,0.25-1.84-0.76-2.5
				c-0.47-0.31-0.47-1.08-0.04-1.38c1.15-0.8,0.78-1.47,0.02-2.24c-0.33-0.34-0.33-0.81,0.01-1.09c0.96-0.8,0.75-1.87,0.76-2.89
				c0.01-3.23,0.49-6.55-0.09-9.67c-0.88-4.73-0.35-9.44-0.6-14.14c-0.05-1.04,0.19-1.78,1.05-2.55c1.13-1.02,0.8-2.67,1.02-4.06
				c0.14-0.9,0.19-1.76,0.53-2.66c0.43-1.12,0.88-2.4,0.06-3.66c-0.25-0.39-0.33-1.1-0.14-1.5c1.03-2.18,1.5-4.55,2.65-6.72
				c1.06-2,1.97-4.13,2.99-6.18c1.12-2.26,2.61-4.22,4.65-5.71c0.43-0.31,0.8-0.64,1.06-1.11c1.36-2.46,3.17-4.6,4.86-6.82
				c0.07-0.09,0.19-0.19,0.19-0.28c-0.15-3.56,3.08-3.73,5.11-5.11c0.52-0.35,1.01-0.79,1.42-1.26c1.19-1.4,2.95-1.92,4.39-2.92
				c0.68-0.47,0.95,0.6,1.67,0.53c2.06-0.19,4.16,0.24,6.22-0.27c1.01-0.25,1.92,0.26,2.91,0.26c7.57-0.05,15.14-0.03,22.7-0.06
				c0.63,0,1.39,0.26,1.64-0.79c0.24-1.02,1.2-0.31,1.38-0.15c1.93,1.69,4.19,0.93,6.3,0.82c1.21-0.07,1.96,0.03,2.47,1.21
				c0.24,0.55,0.72,1.17,1.25,1.39c1.62,0.69,2.54,2.14,3.81,3.21c1.8,1.51,2.89,3.73,5,4.95c0.59,0.34,1.26,0.9,0.71,1.84
				c-0.08,0.13,0.04,0.47,0.17,0.61c6.04,6.11,10.02,13.54,13.4,21.31c0.47,1.08,0.94,2.42,0.1,3.66c-0.32,0.48-0.2,0.96-0.03,1.48
				c0.77,2.38,0.97,4.85,1.13,7.32c0.03,0.45-0.06,1.09,0.2,1.33c1.54,1.44,1.12,3.28,1.23,5.04c0.36,5.78-1.27,11.44-1.05,17.21
				c0.03,0.87-0.05,1.72,0.6,2.45c0.36,0.41,0.47,0.95,0.11,1.44c-0.81,1.12-0.71,2.4-0.71,3.67c0,5.93-0.02,11.87-0.02,17.8
				c0,7.08,0,14.16,0,21.24c0,5.6,0,11.19,0,16.79c0,0.8-0.16,1.65,0.76,2.13c0.27,0.14,0.41,0.55,0.12,0.72
				c-1.7,1.01-0.82,2.37-0.46,3.6c0.15,0.51,0.27,0.99,0.28,1.51c0,4.23,0.14,8.46-0.04,12.68c-0.12,2.81-0.54,5.61-0.76,8.42
				c-0.07,0.85,0.18,1.66-0.02,2.54c-0.37,1.63-0.18,3.33-1.85,4.54c-0.74,0.54-0.86,1.79-0.83,2.88c0.06,2.22,0.1,4.47-0.8,6.58
				c-0.18,0.42,0.04,0.68,0.3,0.9c1.17,0.96,1.27,2.25,1.23,3.62c-0.03,1.08,0.09,2.04,0.71,3.09c0.63,1.08-0.51,2.32-1.34,2.89
				c-0.84,0.57-1.02,1.21-1.08,1.96c-0.18,2.36-0.29,4.72-0.39,7.09c-0.08,1.91-0.16,3.78,1.14,5.46c0.6,0.78,0.55,2.09,0.15,2.86
				c-2.23,4.2-0.96,8.59-0.97,12.91c0,0.87,0.81,1.23,1.04,1.94c1.2,3.69,1.68,7.64,0.84,11.27c-0.65,2.79-0.55,5.25-0.42,7.98
				c0.07,1.57,1.35,3.27,0.13,4.93c-0.25,0.35,0.33,0.64,0.68,0.85c0.9,0.54,1.29,1.48,1.11,2.37c-0.71,3.53,0.03,7.04,0.27,10.52
				c0.22,3.2,0.53,6.42,0.85,9.63c0.43,4.31,0.42,8.65,0.44,12.98c0.04,7.11-2.33,13.4-6.08,19.29c-0.56,0.88-1.12,1.75-1.63,2.66
				c-0.81,1.44-2.06,2.45-3.55,2.9c-2.91,0.86-5.85,1.7-8.88,2.11c-0.61,0.08-1.27,0.16-1.93-0.18c-0.03-0.71,1.96-0.6,0.77-1.77
				c-0.42-0.41-0.87-0.51-1.42-0.34c-2.19,0.7-2.19,0.7-3.25-0.92c-2.37,2.13-4.72,4.29-8.23,4.23c-0.06,0-0.12,0-0.17,0
				c-6.57,0.19-6.57,0.19-11.09-4.45c-0.86-0.89-0.68-2.53,0.5-4.04c0.73-0.94,1.39-0.19,2.12,0.1c1.89,0.75,3.65,1.71,5.16,3.07
				c0.79,0.71,1.72,0.88,2.72,0.85c0.93-0.02,1.8,0.15,2.7,0.48c0.92,0.34,1.6,0.65,1.11,1.83c1.96-0.47,2.92-1.94,3.71-3.31
				c0.98-1.71,2.13-3.34,2.58-5.38c0.33-1.54,1.26-2.95,1.94-4.41c0.21-0.44,0.55-0.86,1.07-0.58c0.51,0.28,0.35,0.81,0.13,1.23
				c-1.21,2.29-2.34,4.6-3.25,7.04c-0.51,1.37-0.77,2.58,0.27,3.59c0.64,0.62,3.5-1.04,3.74-2.24c0.27-1.39,1.01-2.67,0.82-4.18
				c-0.18-1.34,0.27-2.26,1.76-2.92c2.87-1.26,3.03-4,0.71-6.61c-1.12-1.27-2.58-2.39-2.47-4.37c0.35-0.04,0.69-0.13,0.62-0.58
				c-0.02-0.11-0.25-0.28-0.31-0.26c-0.4,0.17-0.25,0.55-0.29,0.86c-0.47,0-1.1,0.04-1.21-0.45c-0.42-1.87-1.95-3.19-2.1-5.32
				c-0.12-1.73-1.41-3.42-2.33-5.05c-0.45-0.8-0.76-1.57-0.61-2.44c0.22-1.32-0.48-1.92-1.58-2.27c-1.93-0.62-3.92-1.03-5.92-1.09
				c-1.22-0.04-2.18-0.65-3.3-0.83c-0.27-0.04-0.55-0.25-0.5-0.6c0.06-0.39,0.42-0.3,0.69-0.36c2.22-0.56,4.52-0.59,6.71-0.22
				c1.41,0.24,1.5-0.84,2.19-1.14c1.02-0.44,0.31,1.87,1.75,1.71c0.72-0.08,1.25-0.2,1.31-1.03c0.05-0.81-0.19-1.39-1.12-1.38
				c-0.99,0.01-1.97,0.12-2.39-1.15c-0.44-1.32-0.45-2.61,0.08-3.88c0.38-0.9,1.03-0.6,1.53-0.17c0.73,0.62,1.36,1.35,2.06,2.01
				c0.39,0.38,0.85,1.08,1.39,0.37c0.49-0.64,1.53-1.18,0.84-2.32c-1.24-2.06-2.82-3.8-4.85-5.1c-1.28-0.82-1.36-1.49-0.24-2.47
				c1.45-1.26,1.34-1.76-0.3-2.73c-2.95-1.75-6.27-2.4-9.47-3.42c-1.79-0.57-3.54-1.28-5.37-1.77c-2.26-0.61-4.48-1.32-6.73-1.96
				c-0.44-0.13-1.11-0.14-0.93-0.72c0.2-0.64,0.76-0.11,1.17-0.04c2.94,0.49,5.94,0.78,8.82,1.51c3.04,0.77,6.23,0.92,9.15,2.18
				c0.92,0.4,1.97,0.3,2.91,0.13c1-0.18,0.92-1.07,0.79-1.93c-0.27-1.71,0.24-2.14,1.97-1.9c0.74,0.1,1.53,0.17,2.24,0
				c0.77-0.19,1.13-0.92,1.24-1.71c0.13-0.96-0.49-1.5-1.25-1.59c-2.94-0.32-2.46-3.06-3.45-4.75c-0.17-0.28,0-0.6,0.24-0.77
				c2.05-1.39,0.41-2.87,0.07-4.28c-0.12-0.48-0.67-0.76-1.27-0.72c-4.02,0.27-7.78-0.7-11.44-2.3c-1.47-0.64-3.34-0.1-4.62-1.64
				c1.11-0.47,2.19,0.16,3.26,0.18c1.65,0.03,3.37,0.2,4.93,0.71c2.92,0.96,5.74,0.37,8.6-0.05c0.89-0.13,1.47-0.26,1.22-1.5
				c-0.16-0.82,0.23-1.81,0.56-2.65c0.76-1.94,2.51-3.79,4.41-4.7c1.1-0.53,1.56-1.29,0.87-2.32c-0.49-0.73-0.36-1.24,0.2-1.8
				c-1.57-0.45-2.98-2.55-3.03-4.51c-0.02-0.85-0.19-1.47-0.88-2.09c-1.05-0.93-1.02-2.01-0.21-2.88c-1.64-0.82-3.36,0.05-5.03-0.2
				c-0.72-0.11-1.99-0.04-1.95-0.84c0.05-0.85,1.25-0.44,1.96-0.51c0.57-0.06,1.16,0.01,1.73-0.06c1.23-0.15,1.71-0.65,2.07-2.08
				c0.61-2.4,0-4.97,1.19-7.24c0.34-0.65-0.29-1.32-0.02-2.08c0.24,0.07,0.51,0.07,0.64,0.2c0.45,0.49,1.21,0.74,1.51,0.32
				c0.4-0.56,0.74-1.58,0.49-2.11c-0.52-1.12-0.72,0.2-1.34,0.45c-0.55-2.13-0.87-4.68-4.3-3.81c0.86-0.9,1.74-0.53,2.52-0.61
				c0.75-0.07,1.5-0.03,2.26-0.03c0.82,0,1.94,0.03,1.9-0.96c-0.03-0.78-1.15-0.34-1.79-0.42c-0.99-0.12-2.02,0.14-3.08-0.17
				c0.34-0.82,0.93-0.83,1.49-0.89c0.35-0.04,0.76-0.07,0.74-0.53c-0.02-0.45-0.43-0.48-0.78-0.48c-2.29-0.04-3.98-1.86-6.29-1.92
				c1.31-1.07,2.88-0.77,4.26-1.17c0.69-0.2,1.05-0.15,0.91-1.13c-0.33-2.32,0.11-2.71,2.52-2.29c1.64,0.29,1.66-0.86,1.87-1.82
				c0.28-1.23-0.46-1.42-1.5-1.41c-4.21,0.04-8.43,0.02-12.65-0.19c2.58-0.3,5.15-0.71,7.74-0.87c3.13-0.19,4.05-0.69,5.13-3.55
				c0.42-1.13,1.34-1.88,2.3-1.81c1.49,0.1,1.14-0.74,1.06-1.47c-0.04-0.38-0.22-0.82-0.49-1.09c-2.19-2.28-2.05-5.11-1.88-7.92
				c0.07-1.17-0.48-2.12-0.67-3.18c-0.31-1.81-0.61-3.64-0.65-5.46c-0.03-1.08,0.64-2.16,0.25-3.31c0.31-0.06,0.71,0.11,0.88-0.3
				c0.03-0.06-0.16-0.3-0.27-0.32C81.68,183.1,81.59,183.44,81.55,183.8z M33.21,146.54c-1.3-0.7-1.52-1.87-1.36-3.2
				c0.04-0.29,0.03-0.58,0.04-0.86c0.23,0,0.49-0.06,0.68,0.02c4.36,1.98,9,1.79,13.61,1.66c0.84-0.02,1.86-0.06,2.25-0.97
				c0.4-0.92-0.11-1.69-0.69-2.51c-1.95-2.75-2.85-5.52-0.9-8.87c2.42-4.16,6.56-4.57,10.96-3.54c0.87,0.21,2.1,1.11,2.48,0.81
				c1.77-1.38,3.5-0.26,5.23-0.36c0.93-0.05,1.29,0.37,1.58,0.94c0.54,1.07,1.15,1.96,2.41,2.28c0.82,0.21,1.09,0.97,1.23,1.74
				c0.29,1.56,1.06,2,2.24,1.07c1.35-1.07,1.66-0.62,1.6,0.82c-0.02,0.47,0.01,0.99,0.56,1.15c0.54,0.16,0.86-0.33,1.11-0.68
				c0.47-0.69,1.06-1.1,1.88-0.89c2.83,0.71,4.79-1.4,7.14-2.22c0.4-0.14,0.69-0.77,1.18-0.42c0.46,0.33-0.03,0.72-0.15,1.07
				c-0.13,0.38-0.41,0.81,0.05,1.07c0.45,0.26,0.91,0.16,1.08-0.44c0.26-0.91,0.87-0.62,1.52-0.52c2.08,0.31,5.44-1.14,6.14-2.54
				c0.39-0.78,0.42-2.17,1.48-2.03c0.87,0.11,0.91,1.48,1.21,2.31c0.21,0.6,0.32,1.23,0.73,1.73c0.28,0.35,0.42,0.68,0.09,1.08
				c-0.94,1.14-0.07,1.82,0.79,2.08c1.29,0.39,1.02-0.9,1.22-1.55c0.5-1.68,0.27-3.42,0.36-5.14c0.15-2.8,0.28-5.6,0.53-8.39
				c0.18-2.04-0.33-4.05-0.1-6c0.37-3.18,0.07-6.35,0.32-9.51c0.13-1.69-0.28-2.35-2.15-2.28c-4.03,0.15-8.06,0.02-12.1,0.04
				c-0.99,0.01-1.96-0.07-2.89-0.41c0.26-2.13-0.89-4.09-0.66-6.26c0.27-2.49,0.24-5.02,0.38-7.53c0.06-1.08-0.15-1.82-1.46-1.8
				c-0.44,0.01-0.89-0.23-1.33-0.36c-1.85-0.57-3.74-1.04-5.6-1.57c-1.5-0.42-3.19-0.31-4.73-0.86c-0.34-0.12-0.84-0.5-1.07,0.02
				c-0.47,1.04-1.2,0.56-1.91,0.49c-0.8-0.08-1.63-0.16-2.41-0.04c-4.07,0.61-8.2-0.17-12.26,0.56c-0.41,0.07-0.94-0.04-0.96-0.52
				c-0.02-0.59,0.58-0.47,0.93-0.44c2.43,0.19,4.84-0.19,7.25-0.39c2.6-0.21,5.18-0.31,7.78-0.3c0.88,0,1.46-1.04,2.44-0.56
				c2.2,1.07,4.56,0.34,6.84,0.53c0.4,0.03,1.05-0.08,0.84-0.55c-0.42-0.97-0.52-2.22-1.53-2.8c-0.66-0.39-1.3-0.59-1.5-1.48
				c-0.24-1.06,0.98-0.9,1.31-1.65c-3.25-0.45-6.32,0.32-9.4,0.29c2.68-1.06,5.62-0.77,8.38-1.75c-3.07-1.43-4.56-4.16-6.32-6.64
				c-0.92-1.3-2.22-2.06-3.75-2.48c-2.47-0.67-4.92-0.25-7.38,0.03c-3.26,0.38-6.51,0.43-9.79,0.47c-2.52,0.03-5.06,0.23-7.6,0.16
				c-2.43-0.07-4.81-0.32-7.24,0.42c-1.23,0.37-2.87,1.58-4.01-0.52c-0.23-0.43-0.85,0.03-1.06,0.48c-0.36,0.76-1.02,1.1-1.87,1.29
				c1.79,0.58,2.84,1.65,2.89,3.52c0.01,0.38,0.2,0.63,0.5,0.85c1.2,0.85,0.82,1.22-0.4,1.51c-0.84,0.2-1.54,0.22-2.28-0.32
				c-0.74-0.54-1.57-0.97-2.39-1.4c-0.67-0.35-1.32-0.31-1.93,0.2c-0.67,0.55-0.19,0.97,0.08,1.48c0.69,1.33,1.6,2.45,2.96,3.33
				c-0.85,0-1.6,0-2.35,0c-2.64,0.01-3.64,0.8-4.33,3.38c-0.27,1.01-0.59,2.02-1.22,2.85c-0.95,1.25-0.32,1.85,0.86,1.99
				c1.66,0.19,3.36,0.38,4.99-0.1c1.87-0.55,3.77-0.47,5.67-0.46c0.42,0,1.06-0.18,1.06,0.52c0,0.57-0.59,0.37-0.95,0.48
				c-1.13,0.32-2.48-0.27-3.34,0.13c-1.88,0.86-3.75,0.38-5.6,0.61c-0.51,0.06-1.22-0.18-1.45,0.32c-0.74,1.57-2.38,2.62-2.47,4.55
				c-0.12,2.58-0.94,5.16,0.03,7.75c0.11,0.31,0.17,0.81,0,1.01c-0.75,0.88-0.09,1.31,0.47,1.8c-1.2,0.27-2.43,0.24-3.62,0.07
				c-3-0.43-6.01-0.23-9-0.17c-2.13,0.05-2.76,1-2.3,3.05c0.19,0.86,0.26,1.71,0.23,2.57c-0.18,6.3,0.21,12.59,0.41,18.88
				c0.06,1.89,0.55,3.81,0.19,5.67c-0.3,1.57-0.28,3.12-0.17,4.65c0.07,1,0.28,2.11,0.97,2.98c0.04,0.02,0.09,0.05,0.13,0.07
				c-0.04-0.03-0.09-0.05-0.13-0.08c0.02-0.23-0.02-0.62,0.08-0.66c1.08-0.44,1.97-1.03,2.46-2.18c0.18-0.41,0.6-0.05,0.86,0.15
				c0.35,0.27,1.05,0.63,0.64,1.02c-1.5,1.42,0.13,1.94,0.61,2.98c0.46-0.89,1.26-1.7,1.11-2.26c-0.6-2.27,0.84-4.08,1.15-6.13
				c0.41-2.68,2.34-4.66,4.09-6.67c1.37-1.57,3.41-1.67,4.55,0.07c0.28,0.42,1.19,0.62,0.77,1.5c-0.97,2.02-0.07,3.8,0.89,5.52
				c0.78,1.4,1.89,2.56,2.94,3.76c-0.58,0.53-1.41,0.96-0.54,1.93c0.31,0.35-0.03,0.79-0.17,1.14c-1.19,2.81-0.58,5.87-1.26,8.79
				c-0.5,2.17-0.39,4.54-0.74,6.81c-0.2,1.29-0.35,2.77,1.23,3.43c3.81,1.6,7.49,1.15,11.1-0.8c-0.35-0.33-1.15-0.08-1.01-0.88
				c0.42-0.41,0.87-0.31,1.42-0.26c2.34,0.2,4.65,0.71,7.04,0.18c2.04-0.46,3.08-1.64,3.08-4.1c-0.01-2.74-0.97-4.16-3.21-4.28
				c-2.13-0.12-4.29-0.3-6.4,0.13c-1.11,0.23-1.14-0.23-1.18-1.04C33.88,148.28,34.34,147.19,33.21,146.54z M73.69,58.56
				c-0.01-0.17-0.01-0.34-0.02-0.51c-4.89,0.05-9.71-0.89-14.57-1.03c-7.57-0.21-15.15-0.13-22.73-0.04
				c-2.79,0.03-5.58,0.43-8.37,0.69c-0.5,0.05-1.24,0.14-1.18,0.75c0.09,0.81,0.78,0.51,1.37,0.43c1.73-0.23,3.44,0.68,5.53-0.37
				c-0.86,1.6-2.05,1.08-2.86,1.49c3.62,0.15,7.21,0.06,10.78,0.17c3.57,0.11,7.25-0.59,10.65,1.17c0.08,0.04,0.28,0.03,0.32-0.03
				c1.03-1.61,2.45-0.48,3.64-0.44c4.28,0.16,8.51-0.34,12.77-0.9c-0.07-0.38-0.82-0.04-0.8-0.72
				C70.03,58.99,71.86,58.77,73.69,58.56z M71.44,154.96C71.44,154.96,71.44,154.95,71.44,154.96c1.33-0.01,2.66-0.01,3.99-0.01
				c0.74,0,1.26-0.27,1.25-1.09c-0.01-1.48-0.4-2.81-1.94-3.35c-2.57-0.9-5.26-0.52-7.82-0.16c-2.14,0.3-2.46,1.49-2.45,4.83
				c0.01,1.75,0.7,2.94,2.43,3.29c2.74,0.56,5.5,0.52,8.23-0.09c0.27-0.06,0.54-0.23,0.74-0.41c0.52-0.47,1.17-1.07,0.58-1.74
				c-0.52-0.59-1.25-0.36-1.79,0.27c-0.49,0.57-1.06,1.31-1.82,1.1c-1.33-0.37-2.64-0.16-3.96-0.25c-0.72-0.05-1.35-0.29-1.87-0.79
				c-0.32-0.3-0.46-0.67-0.37-1.1c0.12-0.53,0.57-0.5,0.97-0.5C68.89,154.95,70.16,154.96,71.44,154.96z M50.6,153.57
				c-0.01,0-0.01,0-0.02,0c0,0.58,0.04,1.16-0.01,1.73c-0.14,1.59,0.43,2.63,2.05,3.12c2.22,0.67,4.45,0.42,6.67,0.16
				c0.83-0.1,1.55-0.48,2.42,0.08c0.57,0.37,1.47,0,1.34-0.79c-0.36-2.19,0.33-4.34,0.08-6.52c-0.08-0.72-0.26-1.26-1.1-1.24
				c-0.85,0.02-1.02,0.61-1.02,1.31c0,1.16-0.02,2.31,0,3.47c0.02,1.08-0.51,1.79-1.48,2.08c-1.68,0.5-3.4,0.54-5.13,0.2
				c-1.41-0.27-2.11-1.02-2.01-2.52c0.08-1.21,0.01-2.43,0-3.64c0-0.65-0.32-0.94-0.97-0.92c-0.58,0.02-0.83,0.33-0.83,0.88
				C50.6,151.84,50.6,152.7,50.6,153.57z M46.13,152.51c0,0,0.01,0,0.01,0c0,1.67,0.01,3.35,0,5.02c0,0.79,0.48,0.94,1.14,0.94
				c0.65,0,0.94-0.3,0.95-0.94c0.08-3.16,0.46-6.32,0.32-9.49c-0.04-0.89-0.28-1.45-1.28-1.43c-0.93,0.03-1.15,0.59-1.14,1.39
				C46.13,149.5,46.13,151,46.13,152.51z M66.75,145.12c0.16,0.35,0.32,0.7,0.49,1.05c0.31,0.63,0.58,1.21,1.49,1.2
				c0.9-0.01,1.18-0.65,1.53-1.2c0.37-0.58,0.57-1.25,0.92-1.85c0.25-0.42,0.29-0.76-0.14-1.03c-0.32-0.2-0.71-0.21-0.95,0.09
				c-0.24,0.3-0.35,0.71-0.54,1.06c-0.21,0.39-0.26,0.97-0.85,0.97c-0.58,0-0.62-0.61-0.88-0.97c-0.13-0.18-0.25-0.4-0.31-0.62
				c-0.46-1.58-1.14-1.08-1.84-0.2c-0.25,0.31-0.46,0.66-0.67,1c-0.49,0.81-0.97,0.7-1.43-0.01c-0.22-0.34-0.37-0.72-0.6-1.05
				c-0.21-0.3-0.52-0.49-0.89-0.33c-0.4,0.17-0.45,0.59-0.3,0.88c0.49,0.97,0.92,2.04,1.63,2.83c0.66,0.73,1.57,0.6,2.17-0.34
				C65.91,146.09,66.01,145.39,66.75,145.12z M54.75,145.21c0.83-0.41,1.47-0.74,2.12-1.05c0.32-0.15,0.68-0.3,0.52-0.74
				c-0.11-0.33-0.46-0.29-0.74-0.3c-1.16-0.05-2.08,0.62-3.07,1.05c-0.51,0.22-0.94,0.59-1.21-0.22c-0.19-0.57-0.52-0.94-1.15-0.73
				c-0.61,0.21-0.61,0.78-0.6,1.31c0,0.58,0,1.16,0.01,1.74c0.01,0.43,0.16,0.82,0.6,0.96c0.53,0.17,0.94-0.06,1.08-0.58
				c0.23-0.88,0.7-0.7,1.3-0.42c0.88,0.4,1.78,0.78,2.7,1.07c0.33,0.11,0.89,0.2,1.07-0.27c0.21-0.52-0.32-0.66-0.66-0.84
				C56.14,145.87,55.54,145.59,54.75,145.21z M88.9,300.48c1.15,1.1,1.14,1.07,2.29,0.82c0.49-0.11,0.92-0.33,1.49-0.28
				c1.68,0.13,3.24-0.44,4.74-1.16c0.42-0.2,0.9-0.45,0.67-1.02c-0.19-0.49-0.67-0.27-1.06-0.27
				C94.23,298.6,91.68,299.66,88.9,300.48z M52.51,44.49c0-0.02,0-0.03,0-0.05c-0.69,0-1.38-0.02-2.07,0.01
				c-0.48,0.02-1.21-0.14-1.09,0.67c0.08,0.56,0.11,1.4,1,1.37c1.78-0.04,3.57,0.26,5.32-0.22c0.55-0.15,1.32,0.03,0.97-1.09
				c-0.26-0.82-0.42-1.14-1.38-0.88C54.39,44.55,53.43,44.45,52.51,44.49z M65.35,351.26c1.19,0.1,2.27,0.01,3.27-0.51
				c0.29-0.15,0.63-0.37,0.52-0.78c-0.08-0.31-0.4-0.37-0.69-0.41c-1.96-0.32-3.93-0.64-5.89-0.97c-0.45-0.08-0.81,0.02-1.02,0.43
				c-0.26,0.51,0,0.86,0.42,1.16C62.99,350.93,64.07,351.56,65.35,351.26z M81.2,84.74c0.69,0.87,1.53,1.03,2.45,1.04
				c2.43,0.01,4.77,0.52,7.1,1.14c0.77,0.21,1.55,0.48,2.33,0.55c0.79,0.07,1.07-0.63,1.16-1.26c0.07-0.49-0.35-0.79-0.79-0.57
				c-1.87,0.92-3.56-0.34-5.35-0.38C85.8,85.2,83.5,84.92,81.2,84.74z M11.76,344.57c0.53-0.03,4.04-3.3,4.09-3.82
				c0.02-0.21-0.01-0.47-0.12-0.64c-0.16-0.23-0.46-0.17-0.58,0.03c-0.88,1.58-2.46,1.84-4,2.22c-0.61,0.15-0.5,0.71-0.31,1.14
				C11.03,343.94,11.13,344.52,11.76,344.57z M77.4,142.21c-0.29-0.64-0.68-1.42-1.57-1.44c-0.88-0.02-1.29,0.67-1.25,1.51
				c0.03,0.76,0.2,1.51,1.2,1.57C76.82,143.92,77.1,143.17,77.4,142.21z M73.93,145.32c0-1.86-0.12-2.27-0.72-2.14
				c-1.29,0.29-0.51,1.41-0.73,2.13c-0.03,0.1-0.02,0.23,0,0.34c0.09,0.68-0.32,1.79,0.72,1.8c1.05,0.01,0.63-1.11,0.73-1.79
				C73.94,145.56,73.93,145.44,73.93,145.32z M60.68,144.38c0.03-0.53-0.07-1.1-0.71-1.16c-0.81-0.08-0.65,0.61-0.7,1.1
				c-0.03,0.29-0.05,0.58,0,0.86c0.11,0.69-0.39,1.87,0.46,1.96c1.16,0.12,0.46-1.12,0.69-1.73
				C60.54,145.09,60.59,144.74,60.68,144.38z M58.17,45.57c0.01-0.04,0.02-0.09,0.02-0.13c-0.06,0.01-0.12,0.02-0.18,0.04
				c0.02,0.04,0.02,0.09,0.05,0.12C58.08,45.61,58.13,45.58,58.17,45.57z"/>
			<path class="st1" d="M21.86,179.38c-5.67-0.03-11.34-0.14-17.01-0.06c-1.77,0.03-2.28-0.48-2.21-2.24
				c0.14-3.41,0.07-6.83,0.02-10.25c-0.02-1.65,0.73-3.11,1.02-4.68c0.2-1.1,3.25-2.12,4.67-1.49c1.53,0.68,3.06,0.52,4.6,0.53
				c0.95,0,1.62,0.21,2.36,0.96c0.79,0.79,0.34,1.08-0.18,1.41c-0.44,0.28-1.08,0.4-0.85,1.07c0.22,0.64,0.92,0.24,1.37,0.41
				c2.3,0.85,4.77,0.25,7.05,0.78c2.29,0.53,3.74,2.38,4.95,4.34c0.52,0.85,0.84,1.89,1.94,2.27c0.63,0.22,0.84,0.17,1.3-0.5
				c0.97-1.45,0.3-3.15,1.11-4.63c0.64-1.17,1.38-1.51,2.57-1.59c2.41-0.17,4.81-0.44,7.21-0.68c0.23-0.02,0.49-0.01,0.67-0.12
				c0.36-0.22,1.12-0.07,1.04-0.68c-0.09-0.65-0.75-0.65-1.27-0.5c-1.67,0.48-3.32,0.35-4.94-0.12c-0.6-0.17-1.6-0.07-1.52-1.05
				c0.08-0.99,1-0.9,1.74-1c5.42-0.69,10.85-0.25,16.28-0.32c6.46-0.08,12.94-0.24,19.39,0.06c4.39,0.2,8.77,0.18,13.16,0.25
				c0.6,0.01,1.14,0.17,1.65,0.44c0.43,0.23,0.9,0.37,1.34,0.21c3.09-1.1,6.31-0.9,9.5-0.98c2.05-0.05,2.77,1.06,1.69,2.79
				c-0.61,0.97-0.74,1.45,0.4,1.94c0.48,0.21,0.44,0.78,0.41,1.24c-0.2,3.13,0.32,6.22,0.35,9.34c0.02,2.74,0,2.57-2.83,2.79
				c-7.05,0.54-14.1,0.11-21.15,0.35c-1.73-0.01-3.46-0.01-5.2-0.02c-0.1-0.03-0.2-0.03-0.3,0c-4.68-0.02-9.35-0.04-14.03-0.05
				c-4.73-0.01-9.46,0.01-14.19-0.2c-1.95-0.09-3.91,0.1-5.87,0.17c-0.43-0.45-0.93-0.29-1.43-0.16c-0.44,0-0.89-0.01-1.33-0.01
				c-0.24-0.02-0.49-0.03-0.73-0.05c-0.22,0-0.44,0-0.66-0.01c-0.36,0.01-0.71,0.03-1.07,0.04
				C29.21,179.39,25.53,179.38,21.86,179.38z M85.89,171.72c-0.88-0.53-1.62-0.99-1.61-2.12c0-0.57,0.24-1.75-0.41-1.6
				c-1.09,0.25-2.09-0.82-3.22,0.14c-1.11,0.95,0.13,1.83-0.25,2.7c-0.34,0.77,0.14,1.21,0.8,1.1
				C82.74,171.66,84.27,171.94,85.89,171.72z M77.5,171.71c0.6-0.97,0.66-1.88,0.28-2.86c-0.2-0.54-0.45-0.83-1-0.49
				c-0.37,0.24-0.61,0.75-0.19,1C77.52,169.91,77.3,170.83,77.5,171.71z"/>
			<path class="st0" d="M43.82,2.14c5.47,0,10.93-0.01,16.4-0.01c1.42,0.63,2.92,0.23,4.37,0.28c2.81,0.09,4.07,1.16,4.43,3.99
				c0.38,3.01,0.67,5.98-0.05,9.04c-0.19,0.79,0.29,2.15,0.42,3.26c0.19,1.68-0.43,2.65-2.15,2.86c-0.2,0.02-0.37,0.25-0.56,0.38
				c-0.99-0.34,0.82-1.23-0.32-1.59c-0.72-0.22-0.69-0.61-0.34-1.31c0.57-1.12,0.38-2.05-1.2-2.07c-0.3,0-0.74,0.12-0.75-0.43
				c1.13-0.56,2.3-1.01,3.75-1.01c-1.11-0.83-2.24-0.54-3.33-0.76c2.18-0.38,1.9-1.96,1.68-3.38c-0.26-1.7,0.2-3.38,0.04-5.07
				c-0.03-0.35-0.05-0.85,0.44-1.05c0.44-0.18,1.16-0.11,0.72-0.95c-0.27-0.52-0.55-1.1-1.21-1.11c-0.8-0.02-0.54,0.76-0.69,1.19
				c-0.16,0.48-0.14,1.02-0.25,1.52c-0.09,0.42,0.3,1.24-0.55,1.12c-0.62-0.09-0.53-0.79-0.4-1.31c0.05-0.22,0.21-0.45,0.18-0.66
				c-0.06-0.59-0.22-1.2-0.96-1.21c-0.78-0.01-0.68,0.63-0.69,1.14c-0.01,0.93-0.04,1.85,0,2.78c0.04,0.81-0.23,1.43-1.07,1.49
				c-0.93,0.06-0.85-0.86-0.95-1.38c-0.16-0.84-0.07-1.73-0.1-2.59c-0.01-0.36-0.09-0.73-0.57-0.67c-0.36,0.04-0.42,0.35-0.43,0.65
				c-0.09,2.14,0.1,4.23-0.97,6.34c-0.81,1.6,0.52,2.79,2.28,3.3c-0.75,0.55-1.44,0.2-2.02,0.43c-0.66,0.27-1.35,0.26-2.04,0.3
				c-0.87,0.05-1.37,0.54-1.43,1.43c-0.03,0.48,0,1,0.51,1.18c1.04,0.38,0.83-0.69,1.15-1.11c0.43-0.56,0.95-0.84,1.63-0.78
				c0.54,0.05,0.79,0.41,0.84,0.94c0.16,1.7-0.55,2.5-2.27,2.5c-5.86-0.02-11.72-0.06-17.57,0.34c-0.64,0.04-1.59-0.2-1.5,0.87
				c0.1,1.27-0.82,1.48-1.61,1.9c-0.66,0.35-1.56,0.14-2.19,0.91c0.54,0.08,0.93,0.14,1.33,0.21c-0.49,0.83-1.14,0.59-1.79,0.24
				c-0.36-0.19-0.46-0.54-0.31-0.89c0.26-0.63,0.85-0.71,1.44-0.76c0.57-0.05,1.24,0.06,1.51-0.59c0.33-0.79-0.5-0.91-0.86-1.29
				c-0.51-0.53-0.43-1.17-0.43-1.8c0-2.81-0.14-5.63,0.06-8.42c0.14-1.94,0.07-3.91,0.56-5.83c0.34-1.35,1.1-1.88,2.45-1.93
				C40.24,2.68,42.05,2.57,43.82,2.14z M55.4,12.42c-0.15,0.82,0.08,1.08,1,0.88c0.97-0.21,0.7-1.08,1.1-1.56
				c0.42-0.5,0.41-0.93-0.1-1.33c-0.45-0.35-0.93-0.8-1.54-0.58c-0.57,0.2-0.32,0.79-0.37,1.22C55.44,11.5,55.43,11.96,55.4,12.42z
				 M67.29,8.12c0.11,0.38-0.21,1.07,0.49,1.02c0.53-0.03,0.55-0.63,0.54-1.09c-0.01-0.41-0.08-0.91-0.53-0.94
				C67.06,7.08,67.42,7.76,67.29,8.12z M42.92,15.19c-1.42-0.08-2.88-0.62-4.26,0.3C40.09,15.39,41.51,15.29,42.92,15.19z"/>
			<path class="st1" d="M35.81,24.02c-0.39-0.06-0.79-0.12-1.33-0.21c0.63-0.77,1.53-0.56,2.19-0.91c0.79-0.42,1.71-0.63,1.61-1.9
				c-0.09-1.08,0.86-0.83,1.5-0.87c5.85-0.4,11.71-0.36,17.57-0.34c1.72,0.01,2.44-0.8,2.27-2.5c-0.05-0.53-0.3-0.89-0.84-0.94
				c-0.68-0.07-1.2,0.22-1.63,0.78c-0.32,0.42-0.11,1.49-1.15,1.11c-0.52-0.19-0.54-0.71-0.51-1.18c0.06-0.89,0.56-1.38,1.43-1.43
				c0.69-0.04,1.38-0.03,2.04-0.3c0.58-0.23,1.26,0.12,2.02-0.43c-1.76-0.51-3.09-1.7-2.28-3.3c1.06-2.1,0.87-4.2,0.97-6.34
				c0.01-0.3,0.08-0.61,0.43-0.65c0.48-0.05,0.56,0.31,0.57,0.67c0.03,0.87-0.07,1.76,0.1,2.59c0.1,0.52,0.02,1.45,0.95,1.38
				c0.84-0.06,1.11-0.68,1.07-1.49c-0.04-0.92-0.02-1.85,0-2.78c0.01-0.51-0.09-1.15,0.69-1.14c0.75,0.01,0.9,0.62,0.96,1.21
				c0.02,0.21-0.13,0.44-0.18,0.66c-0.13,0.53-0.21,1.22,0.4,1.31c0.84,0.12,0.45-0.7,0.55-1.12c0.11-0.5,0.08-1.04,0.25-1.52
				c0.15-0.43-0.11-1.2,0.69-1.19c0.65,0.02,0.94,0.59,1.21,1.11c0.44,0.84-0.28,0.78-0.72,0.95c-0.48,0.19-0.47,0.7-0.44,1.05
				c0.16,1.69-0.29,3.37-0.04,5.07c0.21,1.42,0.5,3-1.68,3.38c1.09,0.22,2.21-0.07,3.33,0.76c-1.45,0.01-2.62,0.45-3.75,1.01
				c0.01,0.55,0.45,0.43,0.75,0.43c1.58,0.02,1.77,0.95,1.2,2.07c-0.35,0.69-0.38,1.08,0.34,1.31c1.15,0.35-0.67,1.25,0.32,1.59
				c0.05,0.08,0.13,0.14,0.21,0.18c0.38,0.86,1.09,1.08,1.95,1.03c0.38,0.02,0.76,0.04,1.14,0.06c0.27,0.47,0.24,0.74-0.4,0.72
				c-0.92-0.02-1.84-0.01-2.76,0.02c-0.38,0.01-1.08,0.04-0.93,0.46c0.52,1.44-0.59,0.82-1.06,0.9c-0.74,0.12-1.42-0.5-2.19-0.25
				c-5.9-0.78-11.82-0.32-17.74-0.23c-1.26-0.5-2.48,0.02-3.71,0.18c-0.41,0.05-1.09-0.23-1.12,0.42c-0.02,0.55,0.6,0.57,1.07,0.6
				c0.21,0.01,0.46-0.01,0.59,0.58c-1.44-0.19-2.39,0.45-2.72,1.93c-0.32-1.3-0.09-2.54-0.48-3.76c-0.24-0.74-0.58-0.9-1.23-0.79
				C36.8,24,36.31,24.01,35.81,24.02z M42.34,21.18c6.71,1.09,13.4,0.75,20.07-0.1C55.71,20.53,49.01,20.08,42.34,21.18z"/>
			<path class="st0" d="M37.3,24c0.65-0.11,0.99,0.05,1.23,0.79c0.38,1.21,0.16,2.46,0.48,3.76c0.33-1.48,1.28-2.13,2.72-1.93
				c-0.13-0.59-0.37-0.56-0.59-0.58c-0.47-0.03-1.09-0.04-1.07-0.6c0.03-0.65,0.71-0.37,1.12-0.42c1.23-0.16,2.45-0.68,3.71-0.18
				c-0.24,1.2,0.71,0.88,1.19,0.8c3.68-0.63,7.38-0.11,11.06-0.31c1.83-0.1,3.68,0.26,5.48-0.26c0.77-0.25,1.45,0.37,2.19,0.25
				c0.47-0.08,1.58,0.54,1.06-0.9c-0.15-0.41,0.55-0.45,0.93-0.46c0.92-0.03,1.84-0.04,2.76-0.02c0.64,0.01,0.67-0.26,0.4-0.72
				c0.44-0.3,0.87-0.42,1.07,0.25c0.14,0.45-0.06,0.8-0.48,1c-0.15,0.07-0.33,0.08-0.5,0.12c-0.9,0.22-2.1-0.56-2.69,0.52
				c-0.48,0.89,0.2,1.92,0.18,2.89c-0.06,3.68,1.22,6.88,3.34,9.8c0.2,0.27,0.6,0.53,0.35,0.88c-0.27,0.38-0.74,0.23-1.12,0.08
				c-0.98-0.38-1.98-0.63-3.04-0.55c-0.5,0.04-0.95-0.16-1.21-0.56c-0.67-1.04-1.68-1.5-2.8-1.81c0.44-0.62,0.98-0.37,1.55-0.22
				c1,0.27,2.02,0.45,3.02,0.7c0.5,0.12,0.95,0.24,0.95-0.51c0.01-1.08-0.98-1.79-2.03-1.43c-0.83,0.28-1.65,0.55-2.53,0.31
				c0.81-0.81,1.59-1.61,0.94-2.92c-0.93-1.86-0.56-4.55-4.09-4.38c-5.77,0.28-11.56,0.07-17.34,0c-1-0.01-1.45,0.35-2,1.18
				c-0.72,1.11-0.7,2.4-0.79,3.47c-0.08,0.99,0.74,2.46,2.45,2.32c1.36-0.12,2.67,0.48,4.06,0.28c-1.83,0.91-3.81,0.83-5.77,0.93
				c0.38-0.79-0.12-0.76-0.69-0.86c-1.26-0.24-2.78-0.14-3.03-2c-0.63,0.49-0.67,1.33-1.45,1.39c1.03-2.66,1.02-5.5,1.38-8.28
				C37.81,25.15,37.46,24.6,37.3,24z"/>
			<path class="st0" d="M40.71,352.03c-2.6,0.19-4.69-0.58-6.22-2.89c-0.55-0.84-0.52-1.15,0.31-1.28c4.12-0.63,6.98-3.86,10.8-5.14
				c1.2-0.4,2.36-0.43,3.33-0.07c1.14,0.42,2.31,3.59,2.07,4.54c-0.1,0.39-0.32,0.57-0.67,0.69c-1.49,0.53-2.75,1.47-3.97,2.44
				C44.69,351.64,42.82,352.22,40.71,352.03z M47.11,348.23c-0.04-0.1-0.09-0.27-0.18-0.4c-0.42-0.57-3.61-0.59-4.05-0.01
				c-0.12,0.16-0.19,0.42-0.16,0.63c0.03,0.26,0.28,0.38,0.51,0.27c0.88-0.44,1.5,0.1,2.2,0.49
				C46.22,349.64,47.17,349.1,47.11,348.23z"/>
			<path class="st0" d="M40.68,35.52c-0.47,1.3-1.25,2.14-2.78,1.99c-1.2-0.11-2.18,0.51-2.8,1.42c-0.6,0.88-1.58,0.89-1.78,0.36
				c-0.37-0.98-1.9,0.01-1.68-1.08c0.2-0.99,1.3-0.95,2.15-1.05c0.53-0.06,0.77-0.45,0.98-0.88c0.28-0.57,0.55-1.15,1.24-1.35
				c0.22,0.75-0.65,1.31-0.39,2.25C37.37,36.66,38.67,34.88,40.68,35.52z"/>
			<path class="st1" d="M64.06,34.67c0.89,0.24,1.71-0.03,2.53-0.31c1.05-0.36,2.04,0.35,2.03,1.43c-0.01,0.74-0.46,0.63-0.95,0.51
				c-1-0.25-2.02-0.44-3.02-0.7c-0.57-0.15-1.11-0.4-1.55,0.22c-1.08-0.11-2.4,0.25-2.73-1.37c0.46-0.26,0.91-0.52,1.37-0.77
				c0,0,0.01,0.01,0.01,0.01c-0.02,0.62,0.36,0.7,0.85,0.62C63.08,34.43,63.57,34.55,64.06,34.67z"/>
			<path class="st0" d="M43.88,281.4c-0.07-0.03-0.33-0.08-0.43-0.24c-0.21-0.35-0.02-0.7,0.26-0.91c1.67-1.26,0.77-2.19-0.36-3.12
				c-0.32-0.27-0.97-0.46-0.49-1.03c0.34-0.4,0.75-0.06,1.03,0.22c0.38,0.38,0.91,0.48,1.33,0.76c0.93,0.62,1.82,1.43,1.46,2.67
				C46.33,280.98,45.09,281.11,43.88,281.4z"/>
			<path class="st1" d="M40.68,35.52c-2.01-0.64-3.31,1.14-5.07,1.67c-0.25-0.95,0.62-1.5,0.39-2.25c0.11-0.28,0.23-0.56,0.34-0.84
				c0.79-0.06,0.82-0.9,1.45-1.39c0.25,1.87,1.77,1.76,3.03,2c0.57,0.11,1.08,0.07,0.69,0.86C41.24,35.56,40.96,35.54,40.68,35.52z"
				/>
			<path class="st0" d="M53.53,344.33c0.11,0.02,0.23,0.02,0.33,0.07c0.46,0.2,1.58,3,1.29,3.4c-0.48,0.66-1.1,1.25-2.01,1.05
				c-0.98-0.21-0.95-1.05-0.87-1.8C52.4,345.92,53.15,344.38,53.53,344.33z"/>
			<path class="st0" d="M29.95,211.93c-1.74,0.52-3.49,0.3-5.23,0.32c-0.44,0-0.76-0.3-0.75-0.77c0-0.18,0.21-0.49,0.34-0.5
				C26.27,210.79,28.15,211.09,29.95,211.93z"/>
			<path class="st0" d="M57.56,37.94c-0.37-0.92-0.68-1.62-1.56-1.83c-0.55-0.13-0.95-0.71-0.61-1.15c0.36-0.46,1.1-0.37,1.53,0.07
				C57.64,35.75,58.11,36.6,57.56,37.94z"/>
			<path class="st0" d="M57.58,330.44c-0.29-0.02-0.58-0.04-0.86-0.06c-0.47-0.03-1.02-0.03-1.05-0.64
				c-0.02-0.52,0.42-0.82,0.89-0.91c0.55-0.11,0.87,0.22,0.95,0.75C57.55,329.86,57.55,330.16,57.58,330.44
				C57.57,330.44,57.58,330.44,57.58,330.44z"/>
			<path class="st0" d="M59.35,39.78c-0.15,0.59-0.49,0.82-1.01,0.66c-0.45-0.14-1.09-0.13-1.08-0.84c0.01-0.73,0.56-0.75,1.08-0.7
				C58.91,38.94,59.28,39.23,59.35,39.78z"/>
			<path class="st0" d="M62.11,30.71c0.04,0.59-0.14,0.87-0.55,0.85c-0.7-0.03-0.94-0.6-1.09-1.16c-0.13-0.47,0.1-1.13,0.53-1.07
				C61.74,29.43,61.48,30.53,62.11,30.71z"/>
			<path class="st0" d="M50.52,329.23c-0.16,0.62-0.68,0.48-1.1,0.49c-0.39,0.01-0.89-0.01-0.78-0.58c0.1-0.52,0.61-0.66,1.05-0.61
				C50.07,328.58,50.48,328.73,50.52,329.23z"/>
			<path class="st0" d="M61.73,33.68c-0.46,0.26-0.91,0.52-1.37,0.77c-0.32-0.67-0.71-1.41,0.33-1.76
				C61.49,32.42,61.82,32.89,61.73,33.68z"/>
			<path class="st0" d="M68.84,23.15c-0.86,0.05-1.57-0.17-1.95-1.03C67.83,21.91,68.29,22.6,68.84,23.15z"/>
			<path class="st0" d="M50.55,34.49c-0.02,0.24-0.09,0.45-0.37,0.48c-0.35,0.04-0.53-0.15-0.53-0.49c0-0.27,0.2-0.41,0.44-0.41
				C50.35,34.08,50.53,34.22,50.55,34.49z"/>
			<path class="st0" d="M62.59,34.31c-0.49,0.08-0.87-0.01-0.85-0.62C62.18,33.67,62.47,33.88,62.59,34.31z"/>
			<path class="st0" d="M36.68,179.42c0.5-0.14,1-0.29,1.43,0.16C37.62,179.64,37.13,179.73,36.68,179.42z"/>
			<path class="st0" d="M32.89,179.39c0.36-0.01,0.71-0.03,1.07-0.04C33.62,179.69,33.26,179.69,32.89,179.39z"/>
			<path class="st0" d="M34.62,179.36c0.24,0.02,0.49,0.03,0.73,0.05C35.09,179.65,34.84,179.63,34.62,179.36z"/>
			<path class="st0" d="M72.2,179.67c0.1-0.03,0.2-0.04,0.3,0C72.4,179.83,72.3,179.84,72.2,179.67z"/>
			<path class="st0" d="M57.57,330.44c0.03,0.02,0.06,0.04,0.1,0.06C57.64,330.48,57.61,330.46,57.57,330.44
				C57.58,330.44,57.57,330.44,57.57,330.44z"/>
			<path class="st1" d="M84.59,103.09c0.93,0.34,1.9,0.41,2.89,0.41c4.03-0.02,8.07,0.11,12.1-0.04c1.86-0.07,2.28,0.59,2.15,2.28
				c-0.25,3.16,0.06,6.33-0.32,9.51c-0.23,1.95,0.28,3.96,0.1,6c-0.25,2.79-0.39,5.59-0.53,8.39c-0.09,1.72,0.14,3.46-0.36,5.14
				c-0.19,0.65,0.07,1.94-1.22,1.55c-0.86-0.26-1.73-0.94-0.79-2.08c0.33-0.4,0.19-0.73-0.09-1.08c-0.41-0.51-0.52-1.13-0.73-1.73
				c-0.3-0.84-0.34-2.2-1.21-2.31c-1.06-0.14-1.09,1.25-1.48,2.03c-0.69,1.4-4.05,2.85-6.14,2.54c-0.65-0.1-1.25-0.39-1.52,0.52
				c-0.17,0.6-0.63,0.69-1.08,0.44c-0.47-0.27-0.18-0.69-0.05-1.07c0.12-0.35,0.61-0.74,0.15-1.07c-0.49-0.35-0.78,0.28-1.18,0.42
				c-2.35,0.82-4.3,2.93-7.14,2.22c-0.83-0.21-1.41,0.21-1.88,0.89c-0.24,0.35-0.56,0.83-1.11,0.68c-0.54-0.15-0.57-0.67-0.56-1.15
				c0.05-1.44-0.25-1.88-1.6-0.82c-1.18,0.93-1.94,0.49-2.24-1.07c-0.15-0.77-0.41-1.53-1.23-1.74c-1.27-0.32-1.87-1.2-2.41-2.28
				c-0.29-0.57-0.65-0.99-1.58-0.94c-1.73,0.09-3.46-1.03-5.23,0.36c-0.38,0.3-1.61-0.6-2.48-0.81c-4.4-1.04-8.55-0.62-10.96,3.54
				c-1.94,3.34-1.05,6.12,0.9,8.87c0.58,0.82,1.08,1.58,0.69,2.51c-0.39,0.91-1.41,0.95-2.25,0.97c-4.62,0.13-9.25,0.32-13.61-1.66
				c-0.19-0.09-0.45-0.02-0.68-0.02c-0.48-0.57-1.39-0.44-1.81-1.12c0.16-0.68,0.69-0.64,1.21-0.66c0.43-0.02,0.98,0.15,1.18-0.43
				c0.2-0.58,0.06-1.09-0.35-1.58c-1.21-1.45-3.51-2.08-4.88-0.94c-0.81,0.67-1.47,0.56-2.26,0.53c-0.14-0.04-0.27-0.08-0.41-0.13
				c-1.05-1.2-2.16-2.35-2.94-3.75c-0.96-1.72-1.85-3.5-0.89-5.52c0.42-0.88-0.5-1.08-0.77-1.5c-1.14-1.74-3.18-1.64-4.55-0.07
				c-1.76,2.01-3.69,3.99-4.09,6.67c-0.31,2.05-1.76,3.86-1.15,6.13c0.15,0.56-0.65,1.38-1.11,2.26c-0.48-1.05-2.11-1.57-0.61-2.98
				c0.42-0.39-0.29-0.75-0.64-1.02c-0.27-0.2-0.69-0.56-0.86-0.15c-0.49,1.15-1.38,1.74-2.46,2.18c-0.1,0.04-0.06,0.43-0.08,0.66
				l0,0c-0.69-0.87-0.89-1.98-0.97-2.98c-0.11-1.53-0.13-3.08,0.17-4.65c0.36-1.87-0.13-3.78-0.19-5.67
				c-0.2-6.29-0.59-12.58-0.41-18.88c0.02-0.86-0.04-1.71-0.23-2.57c-0.46-2.06,0.18-3.01,2.3-3.05c3-0.06,6-0.26,9,0.17
				c1.2,0.17,2.42,0.2,3.62-0.07c4.04,0.08,8.07,0.15,12.11,0.22c0.69,0.44,1.36,0.53,2-0.08c16.46-0.02,32.91-0.05,49.37-0.07
				c0.4,0.1,0.78,0.15,1.06-0.24C83.03,103.14,83.81,103.12,84.59,103.09z M33.58,116.94c-0.75-0.46-1.3-0.01-1.88,0.39
				c-0.37,0.25-0.85,0.62-1.21,0.55c-1.84-0.36-3.43,0.81-4.27,1.78c-2.11,2.42-4.61,4.88-3.99,8.71c0.15,0.94,0.51,1.12,0.99,0.55
				c0.91-1.08,2.28-1.26,3.36-1.99c1.44-0.98,3.22-1.43,4.99-1.49c1.49-0.05,2.75-0.38,4-1.3c1.34-0.98,2.77-1.81,3.75-3.21
				c0.5-0.71,1.22-1.22,2.11-1.43c0.73-0.18,1.16-0.76,1.58-1.29c0.54-0.68,0.28-1.33-0.53-1.38c-1.88-0.11-3.72-0.77-5.65-0.19
				C35.81,116.92,34.68,116.84,33.58,116.94z M20.34,125.71c0.96-0.84,0.93-2.13,1.61-3.02c2.11-2.77,4.49-5.16,7.86-6.43
				c0.64-0.24,2.03-0.81,1.24-1.87c-0.44-0.59-0.56-1.06-0.56-1.64c0-1.55-0.99-2.53-2.22-2.9c-1.27-0.39-1-1.17-0.81-1.86
				c0.59-2.04,0.64-2.03-1.52-2.03c-0.87,0-1.73,0-2.6,0.01c-0.66,0-1.1,0.26-1.19,0.98c-0.34,2.5-0.79,4.99-1.04,7.5
				C20.75,118.15,20.09,121.84,20.34,125.71z"/>
			<path class="st2" d="M81.19,103.41c-16.46,0.02-32.91,0.05-49.37,0.07c-0.69-0.43-1.36-0.53-2,0.08
				c-4.04-0.07-8.07-0.15-12.11-0.22c-0.56-0.49-1.22-0.92-0.47-1.8c0.17-0.2,0.11-0.71,0-1.01c-0.96-2.59-0.15-5.17-0.03-7.75
				c0.09-1.93,1.73-2.99,2.47-4.55c0.24-0.5,0.95-0.26,1.45-0.32c1.85-0.22,3.72,0.26,5.6-0.61c0.86-0.4,2.21,0.19,3.34-0.13
				c0.36-0.1,0.95,0.09,0.95-0.48c0-0.7-0.65-0.52-1.06-0.52c-1.9,0-3.8-0.08-5.67,0.46c-1.63,0.48-3.34,0.29-4.99,0.1
				c-1.19-0.14-1.81-0.74-0.86-1.99c0.63-0.83,0.95-1.85,1.22-2.85c0.69-2.58,1.69-3.37,4.33-3.38c0.75,0,1.5,0,2.35,0
				c-1.36-0.88-2.28-2-2.96-3.33c-0.26-0.51-0.75-0.93-0.08-1.48c0.61-0.51,1.26-0.55,1.93-0.2c0.82,0.43,1.64,0.86,2.39,1.4
				c0.74,0.53,1.44,0.52,2.28,0.32c1.22-0.29,1.61-0.65,0.4-1.51c-0.31-0.22-0.49-0.46-0.5-0.85c-0.05-1.87-1.1-2.94-2.89-3.52
				c0.85-0.19,1.5-0.53,1.87-1.29c0.21-0.45,0.83-0.91,1.06-0.48c1.13,2.1,2.78,0.89,4.01,0.52c2.43-0.74,4.81-0.49,7.24-0.42
				c2.53,0.07,5.08-0.13,7.6-0.16c3.28-0.04,6.54-0.1,9.79-0.47c2.46-0.28,4.91-0.7,7.38-0.03c1.53,0.41,2.83,1.17,3.75,2.48
				c1.76,2.48,3.25,5.21,6.32,6.64c-2.76,0.97-5.71,0.69-8.38,1.75c3.08,0.03,6.15-0.74,9.4-0.29c-0.33,0.75-1.55,0.59-1.31,1.65
				c0.2,0.89,0.84,1.09,1.5,1.48c1,0.58,1.1,1.83,1.53,2.8c0.2,0.47-0.44,0.58-0.84,0.55c-2.28-0.19-4.63,0.54-6.84-0.53
				c-0.98-0.47-1.56,0.57-2.44,0.56c-2.6-0.01-5.19,0.08-7.78,0.3c-2.4,0.2-4.81,0.58-7.25,0.39c-0.35-0.03-0.95-0.15-0.93,0.44
				c0.02,0.47,0.55,0.59,0.96,0.52c4.06-0.73,8.19,0.05,12.26-0.56c0.79-0.12,1.61-0.04,2.41,0.04c0.71,0.07,1.44,0.55,1.91-0.49
				c0.23-0.52,0.73-0.14,1.07-0.02c1.54,0.55,3.22,0.44,4.73,0.86c1.86,0.52,3.74,1,5.6,1.57c0.44,0.13,0.89,0.37,1.33,0.36
				c1.31-0.02,1.52,0.72,1.46,1.8c-0.14,2.51-0.11,5.04-0.38,7.53c-0.23,2.17,0.91,4.13,0.66,6.26c-0.78,0.02-1.56,0.05-2.34,0.07
				C81.88,103.16,81.5,103.13,81.19,103.41z M31.03,79.52c-0.48,0.09-1.39-0.25-1.46,0.4c-0.19,1.69-0.73,3.37-0.44,5.1
				c0.07,0.44,0.4,0.65,0.83,0.76c1.4,0.34,2.83-0.73,2.92-2.18c0.03-0.51,0.15-1.01,0.25-1.51C33.5,80.21,32.96,79.54,31.03,79.52z
				 M75.89,99.96c-0.21-0.34-0.28-0.91-0.95-0.91c-0.5,0-0.92,0.2-0.94,0.75c-0.03,0.68,0.59,0.51,0.98,0.65
				C75.41,100.59,75.75,100.61,75.89,99.96z M66.66,77.96c-1.04-0.13-1.58-0.21-2.18,0.03C65.09,78.21,65.64,78.13,66.66,77.96z"/>
			<path class="st2" d="M30.09,141.37c0.41,0.68,1.32,0.55,1.81,1.12c-0.01,0.29,0,0.58-0.04,0.86c-0.17,1.33,0.05,2.49,1.36,3.2
				c-0.82-0.17-1.14,0.16-1.12,0.99c0.03,1.04-0.02,2.07-0.03,3.11c-0.77,0.55-0.77,1.1,0,1.66c0,0.26,0,0.52,0,0.78
				c-0.82,0.78-0.81,1.56-0.01,2.35c0,0.72,0,1.44-0.01,2.17c-0.59,0.39-0.63,0.69,0.13,0.88c0.33,0.04,0.67,0.07,1,0.11
				c-0.14,0.79,0.66,0.55,1.01,0.88c-3.61,1.96-7.29,2.41-11.1,0.8c-1.58-0.67-1.43-2.14-1.23-3.43c0.35-2.27,0.24-4.64,0.74-6.81
				c0.67-2.92,0.07-5.98,1.26-8.79c0.15-0.34,0.49-0.79,0.17-1.14c-0.86-0.97-0.04-1.4,0.54-1.93c0.14,0.04,0.27,0.08,0.4,0.12
				c0.85,0.92,1.12,1.86,0.29,3c-0.28,0.38-0.33,0.99-0.32,1.49c0.01,0.74,0.56,0.89,1.08,0.55c0.58-0.39-0.05-2.77,1.8-1.05
				c0.06-0.09,0.16-0.18,0.19-0.28C28.34,140.57,29.32,141.33,30.09,141.37z"/>
			<path class="st2" d="M73.69,58.56c-1.83,0.22-3.66,0.43-5.46,0.64c-0.02,0.68,0.73,0.34,0.8,0.72c-4.25,0.57-8.48,1.06-12.77,0.9
				c-1.19-0.04-2.61-1.17-3.64,0.44c-0.04,0.06-0.23,0.07-0.32,0.03c-3.4-1.76-7.08-1.06-10.65-1.17
				c-3.58-0.12-7.16-0.03-10.78-0.17c0.82-0.41,2,0.11,2.86-1.49c-2.09,1.05-3.8,0.14-5.53,0.37c-0.59,0.08-1.28,0.38-1.37-0.43
				c-0.07-0.6,0.68-0.7,1.18-0.75c2.79-0.26,5.58-0.66,8.37-0.69c7.58-0.09,15.16-0.17,22.73,0.04c4.86,0.14,9.68,1.08,14.57,1.03
				C73.68,58.22,73.69,58.39,73.69,58.56z"/>
			<path class="st1" d="M71.44,154.96c-1.27,0-2.55,0-3.82,0c-0.4,0-0.85-0.03-0.97,0.5c-0.1,0.43,0.05,0.8,0.37,1.1
				c0.53,0.5,1.15,0.74,1.87,0.79c1.32,0.09,2.63-0.12,3.96,0.25c0.77,0.21,1.34-0.53,1.82-1.1c0.54-0.63,1.27-0.86,1.79-0.27
				c0.59,0.67-0.05,1.27-0.58,1.74c-0.21,0.19-0.48,0.35-0.74,0.41c-2.74,0.61-5.49,0.64-8.23,0.09c-1.73-0.35-2.42-1.54-2.43-3.29
				c-0.01-3.34,0.31-4.53,2.45-4.83c2.56-0.36,5.25-0.74,7.82,0.16c1.53,0.54,1.93,1.87,1.94,3.35c0,0.82-0.52,1.09-1.25,1.09
				C74.1,154.95,72.77,154.95,71.44,154.96C71.44,154.95,71.44,154.96,71.44,154.96z M70.7,153.52c0.92,0,1.84,0.03,2.76-0.01
				c0.48-0.02,1.2,0.26,1.34-0.39c0.16-0.74-0.5-1.16-1.11-1.32c-2.03-0.53-4.09-0.34-6.14-0.11c-0.57,0.06-0.98,0.62-0.88,1.3
				c0.1,0.65,0.66,0.52,1.1,0.53C68.75,153.53,69.72,153.52,70.7,153.52z"/>
			<path class="st1" d="M32.07,153.08c0-0.26,0-0.52,0-0.78c0.18-0.55,0.18-1.1,0-1.66c0.01-1.04,0.07-2.08,0.03-3.11
				c-0.03-0.83,0.3-1.17,1.12-0.99c1.12,0.65,0.67,1.74,0.72,2.67c0.04,0.81,0.08,1.27,1.18,1.04c2.1-0.44,4.27-0.25,6.4-0.13
				c2.24,0.12,3.2,1.54,3.21,4.28c0,2.46-1.04,3.65-3.08,4.1c-2.39,0.53-4.71,0.02-7.04-0.18c-0.55-0.05-1-0.15-1.42,0.26
				c-0.33-0.03-0.67-0.07-1-0.11c-0.04-0.29-0.09-0.59-0.13-0.88c0-0.72,0-1.44,0.01-2.17C32.27,154.65,32.27,153.86,32.07,153.08z
				 M38.18,151.5c0,0,0,0.01,0,0.01c-0.81,0-1.62-0.06-2.42,0.01c-1.05,0.1-1.8,0.74-1.76,1.78c0.05,1.28-0.77,3.02,1.05,3.63
				c2.04,0.68,4.2,0.67,6.3,0.01c0.61-0.19,1.12-0.49,1.27-1.26c0.61-3.12-0.23-4.19-3.4-4.19C38.87,151.5,38.53,151.5,38.18,151.5z
				"/>
			<path class="st1" d="M50.6,153.57c0-0.87,0-1.73,0-2.6c0-0.55,0.25-0.86,0.83-0.88c0.65-0.02,0.97,0.27,0.97,0.92
				c0,1.21,0.07,2.43,0,3.64c-0.09,1.5,0.61,2.25,2.01,2.52c1.73,0.33,3.45,0.29,5.13-0.2c0.97-0.29,1.51-1,1.48-2.08
				c-0.03-1.16,0-2.31,0-3.47c0-0.7,0.17-1.29,1.02-1.31c0.84-0.02,1.02,0.52,1.1,1.24c0.24,2.18-0.44,4.33-0.08,6.52
				c0.13,0.79-0.77,1.16-1.34,0.79c-0.88-0.57-1.59-0.18-2.42-0.08c-2.22,0.26-4.45,0.51-6.67-0.16c-1.62-0.49-2.19-1.52-2.05-3.12
				c0.05-0.57,0.01-1.16,0.01-1.73C50.59,153.57,50.6,153.57,50.6,153.57z"/>
			<path class="st1" d="M46.13,152.51c0-1.5,0.01-3,0-4.5c-0.01-0.79,0.21-1.36,1.14-1.39c1-0.03,1.25,0.54,1.28,1.43
				c0.14,3.17-0.24,6.33-0.32,9.49c-0.02,0.64-0.31,0.94-0.95,0.94c-0.65,0-1.14-0.15-1.14-0.94c0.01-1.67,0-3.35,0-5.02
				C46.13,152.51,46.13,152.51,46.13,152.51z"/>
			<path class="st1" d="M66.75,145.12c-0.74,0.28-0.85,0.97-1.18,1.49c-0.6,0.94-1.51,1.07-2.17,0.34
				c-0.72-0.79-1.14-1.85-1.63-2.83c-0.15-0.3-0.1-0.71,0.3-0.88c0.38-0.16,0.69,0.03,0.89,0.33c0.23,0.33,0.38,0.72,0.6,1.05
				c0.46,0.71,0.94,0.82,1.43,0.01c0.21-0.35,0.42-0.69,0.67-1c0.7-0.88,1.38-1.38,1.84,0.2c0.06,0.22,0.18,0.43,0.31,0.62
				c0.26,0.36,0.3,0.96,0.88,0.97c0.59,0,0.64-0.58,0.85-0.97c0.19-0.35,0.3-0.75,0.54-1.06c0.24-0.29,0.63-0.29,0.95-0.09
				c0.43,0.27,0.39,0.61,0.14,1.03c-0.35,0.59-0.55,1.27-0.92,1.85c-0.35,0.56-0.64,1.19-1.53,1.2c-0.91,0.01-1.18-0.57-1.49-1.2
				C67.07,145.82,66.92,145.47,66.75,145.12z"/>
			<path class="st1" d="M54.75,145.21c0.79,0.38,1.4,0.67,1.99,0.97c0.34,0.18,0.86,0.31,0.66,0.84c-0.18,0.47-0.74,0.38-1.07,0.27
				c-0.92-0.29-1.82-0.67-2.7-1.07c-0.6-0.27-1.07-0.45-1.3,0.42c-0.14,0.51-0.55,0.75-1.08,0.58c-0.44-0.14-0.59-0.53-0.6-0.96
				c-0.01-0.58-0.01-1.16-0.01-1.74c0-0.53,0-1.1,0.6-1.31c0.63-0.22,0.96,0.16,1.15,0.73c0.27,0.8,0.7,0.44,1.21,0.22
				c0.99-0.43,1.91-1.1,3.07-1.05c0.28,0.01,0.63-0.03,0.74,0.3c0.15,0.44-0.21,0.59-0.52,0.74
				C56.22,144.47,55.57,144.8,54.75,145.21z"/>
			<path class="st2" d="M88.9,300.48c2.78-0.82,5.33-1.88,8.12-1.92c0.39,0,0.87-0.22,1.06,0.27c0.23,0.57-0.25,0.82-0.67,1.02
				c-1.5,0.72-3.06,1.29-4.74,1.16c-0.57-0.04-1,0.18-1.49,0.28C90.03,301.55,90.04,301.59,88.9,300.48z"/>
			<path class="st2" d="M52.51,44.49c0.92-0.05,1.88,0.05,2.74-0.19c0.95-0.26,1.12,0.05,1.38,0.88c0.36,1.12-0.42,0.94-0.97,1.09
				c-1.76,0.49-3.55,0.18-5.32,0.22c-0.89,0.02-0.92-0.82-1-1.37c-0.11-0.81,0.61-0.65,1.09-0.67c0.69-0.03,1.38-0.01,2.07-0.01
				C52.51,44.46,52.51,44.48,52.51,44.49z"/>
			<path class="st1" d="M65.35,351.26c-1.28,0.3-2.36-0.32-3.4-1.08c-0.41-0.3-0.67-0.65-0.42-1.16c0.21-0.41,0.57-0.5,1.02-0.43
				c1.96,0.33,3.93,0.65,5.89,0.97c0.29,0.05,0.61,0.11,0.69,0.41c0.11,0.41-0.23,0.63-0.52,0.78
				C67.62,351.27,66.54,351.36,65.35,351.26z"/>
			<path class="st1" d="M81.2,84.74c2.3,0.18,4.6,0.46,6.9,0.51c1.79,0.04,3.48,1.3,5.35,0.38c0.44-0.22,0.86,0.08,0.79,0.57
				c-0.09,0.63-0.37,1.33-1.16,1.26c-0.79-0.07-1.56-0.34-2.33-0.55c-2.33-0.62-4.68-1.13-7.1-1.14
				C82.73,85.77,81.89,85.61,81.2,84.74z"/>
			<path class="st2" d="M11.76,344.57c-0.63-0.04-0.73-0.63-0.92-1.07c-0.19-0.42-0.3-0.99,0.31-1.14c1.55-0.37,3.12-0.64,4-2.22
				c0.11-0.2,0.42-0.26,0.58-0.03c0.11,0.17,0.15,0.43,0.12,0.64C15.79,341.26,12.29,344.53,11.76,344.57z"/>
			<path class="st1" d="M77.4,142.21c-0.3,0.95-0.58,1.71-1.63,1.64c-1-0.06-1.16-0.81-1.2-1.57c-0.04-0.84,0.38-1.54,1.25-1.51
				C76.72,140.8,77.11,141.57,77.4,142.21z"/>
			<path class="st1" d="M73.93,145.32c0,0.11,0.01,0.23,0,0.34c-0.1,0.67,0.31,1.79-0.73,1.79c-1.04-0.01-0.63-1.12-0.72-1.8
				c-0.02-0.11-0.03-0.24,0-0.34c0.22-0.73-0.55-1.84,0.73-2.13C73.81,143.05,73.93,143.46,73.93,145.32z"/>
			<path class="st1" d="M60.68,144.38c-0.09,0.36-0.14,0.71-0.26,1.03c-0.23,0.61,0.47,1.85-0.69,1.73
				c-0.85-0.09-0.35-1.27-0.46-1.96c-0.05-0.28-0.03-0.58,0-0.86c0.04-0.48-0.11-1.18,0.7-1.1
				C60.61,143.28,60.7,143.85,60.68,144.38z"/>
			<path class="st2" d="M81.55,183.8c0.04-0.36,0.12-0.7,0.59-0.64c0.11,0.02,0.3,0.25,0.27,0.32c-0.17,0.41-0.57,0.24-0.88,0.3
				C81.53,183.79,81.55,183.8,81.55,183.8z"/>
			<path class="st2" d="M83.29,327.67c0.04-0.31-0.11-0.69,0.29-0.86c0.06-0.03,0.29,0.15,0.31,0.26c0.07,0.46-0.27,0.54-0.62,0.58
				C83.27,327.65,83.29,327.67,83.29,327.67z"/>
			<path class="st2" d="M58.17,45.57c-0.04,0.01-0.09,0.03-0.11,0.02c-0.03-0.03-0.03-0.08-0.05-0.12c0.06-0.01,0.12-0.02,0.18-0.04
				C58.18,45.48,58.17,45.53,58.17,45.57z"/>
			<path class="st1" d="M4.42,141.05c0.04,0.03,0.09,0.05,0.13,0.08C4.51,141.1,4.46,141.08,4.42,141.05L4.42,141.05z"/>
			<path class="st0" d="M85.89,171.72c-1.62,0.22-3.15-0.06-4.69,0.21c-0.66,0.12-1.14-0.33-0.8-1.1c0.38-0.87-0.86-1.75,0.25-2.7
				c1.12-0.96,2.13,0.11,3.22-0.14c0.65-0.15,0.42,1.03,0.41,1.6C84.28,170.72,85.01,171.18,85.89,171.72z"/>
			<path class="st0" d="M77.5,171.71c-0.2-0.88,0.02-1.8-0.9-2.35c-0.42-0.25-0.18-0.76,0.19-1c0.54-0.34,0.79-0.05,1,0.49
				C78.15,169.83,78.1,170.74,77.5,171.71z"/>
			<path class="st1" d="M55.4,12.42c0.03-0.46,0.04-0.91,0.09-1.37c0.05-0.43-0.2-1.02,0.37-1.22c0.61-0.21,1.08,0.24,1.54,0.58
				c0.51,0.39,0.52,0.83,0.1,1.33c-0.4,0.48-0.13,1.35-1.1,1.56C55.48,13.5,55.25,13.24,55.4,12.42z"/>
			<path class="st1" d="M67.29,8.12c0.13-0.37-0.23-1.04,0.51-1c0.45,0.02,0.52,0.53,0.53,0.94c0.01,0.46-0.01,1.06-0.54,1.09
				C67.08,9.19,67.4,8.51,67.29,8.12z"/>
			<path class="st1" d="M42.92,15.19c-1.42,0.1-2.84,0.2-4.26,0.3C40.04,14.58,41.5,15.11,42.92,15.19z"/>
			<path class="st0" d="M42.34,21.18c6.68-1.1,13.38-0.65,20.07-0.1C55.73,21.93,49.05,22.26,42.34,21.18z"/>
			<path class="st2" d="M62.64,25.06c-1.81,0.52-3.66,0.16-5.48,0.26c-3.68,0.2-7.39-0.32-11.06,0.31c-0.48,0.08-1.43,0.4-1.19-0.8
				C50.82,24.74,56.74,24.29,62.64,25.06z"/>
			<path class="st1" d="M47.11,348.23c0.05,0.87-0.89,1.41-1.69,0.97c-0.7-0.39-1.32-0.93-2.2-0.49c-0.23,0.11-0.48-0.01-0.51-0.27
				c-0.02-0.2,0.04-0.46,0.16-0.63c0.44-0.58,3.63-0.56,4.05,0.01C47.03,347.97,47.07,348.14,47.11,348.23z"/>
			<path class="st0" d="M33.58,116.94c1.09-0.09,2.23-0.01,3.24-0.32c1.94-0.58,3.78,0.08,5.65,0.19c0.81,0.05,1.06,0.7,0.53,1.38
				c-0.42,0.53-0.85,1.12-1.58,1.29c-0.89,0.22-1.61,0.72-2.11,1.43c-0.99,1.41-2.41,2.23-3.75,3.21c-1.25,0.91-2.5,1.25-4,1.3
				c-1.76,0.06-3.55,0.51-4.99,1.49c-1.08,0.74-2.45,0.91-3.36,1.99c-0.48,0.57-0.84,0.39-0.99-0.55c-0.61-3.82,1.89-6.28,3.99-8.71
				c0.84-0.97,2.43-2.14,4.27-1.78c0.36,0.07,0.84-0.3,1.21-0.55C32.29,116.92,32.83,116.47,33.58,116.94z"/>
			<path class="st0" d="M20.34,125.71c-0.26-3.88,0.4-7.57,0.77-11.27c0.25-2.51,0.69-5,1.04-7.5c0.1-0.72,0.54-0.97,1.19-0.98
				c0.87-0.01,1.73-0.01,2.6-0.01c2.16,0,2.11-0.02,1.52,2.03c-0.2,0.69-0.46,1.47,0.81,1.86c1.23,0.38,2.22,1.35,2.22,2.9
				c0,0.59,0.11,1.05,0.56,1.64c0.79,1.06-0.6,1.62-1.24,1.87c-3.37,1.27-5.75,3.66-7.86,6.43
				C21.27,123.59,21.3,124.87,20.34,125.71z"/>
			<path class="st0" d="M30.09,141.37c-0.76-0.04-1.74-0.8-2.08,0.62c-0.02,0.1-0.12,0.19-0.19,0.28c-1.84-1.72-1.21,0.66-1.8,1.05
				c-0.52,0.34-1.07,0.19-1.08-0.55c-0.01-0.5,0.05-1.11,0.32-1.49c0.83-1.14,0.56-2.07-0.29-3c0.8,0.03,1.45,0.14,2.26-0.53
				c1.37-1.14,3.67-0.51,4.88,0.94c0.41,0.49,0.55,1.01,0.35,1.58c-0.2,0.58-0.75,0.41-1.18,0.43
				C30.78,140.73,30.25,140.69,30.09,141.37z"/>
			<path class="st0" d="M29.82,103.56c0.65-0.61,1.32-0.51,2-0.08C31.18,104.09,30.51,104,29.82,103.56z"/>
			<path class="st0" d="M81.19,103.41c0.31-0.28,0.69-0.24,1.06-0.24C81.97,103.56,81.59,103.51,81.19,103.41z"/>
			<path class="st0" d="M31.03,79.52c1.93,0.01,2.47,0.69,2.1,2.56c-0.1,0.5-0.21,1-0.25,1.51c-0.09,1.45-1.52,2.52-2.92,2.18
				c-0.43-0.11-0.76-0.32-0.83-0.76c-0.29-1.73,0.25-3.41,0.44-5.1C29.64,79.27,30.55,79.61,31.03,79.52z"/>
			<path class="st0" d="M75.89,99.96c-0.14,0.65-0.49,0.63-0.91,0.48c-0.39-0.14-1.01,0.03-0.98-0.65c0.02-0.54,0.44-0.75,0.94-0.75
				C75.61,99.04,75.68,99.62,75.89,99.96z"/>
			<path class="st0" d="M66.66,77.96c-1.02,0.17-1.57,0.25-2.18,0.03C65.08,77.75,65.62,77.83,66.66,77.96z"/>
			<path class="st0" d="M32.07,153.08c0.2,0.78,0.2,1.57-0.01,2.35C31.26,154.65,31.25,153.86,32.07,153.08z"/>
			<path class="st0" d="M32.06,150.65c0.18,0.55,0.18,1.1,0,1.66C31.3,151.75,31.3,151.2,32.06,150.65z"/>
			<path class="st0" d="M32.05,157.6c0.04,0.29,0.09,0.59,0.13,0.88C31.42,158.29,31.47,157.99,32.05,157.6z"/>
			<path class="st0" d="M70.7,153.52c-0.98,0-1.95,0.01-2.93-0.01c-0.44-0.01-0.99,0.12-1.1-0.53c-0.11-0.68,0.31-1.24,0.88-1.3
				c2.04-0.23,4.11-0.42,6.14,0.11c0.61,0.16,1.27,0.58,1.11,1.32c-0.14,0.66-0.87,0.37-1.34,0.39
				C72.54,153.54,71.62,153.52,70.7,153.52z"/>
			<path class="st0" d="M38.18,151.5c0.35,0,0.69,0,1.04,0c3.16,0.01,4.01,1.07,3.4,4.19c-0.15,0.76-0.67,1.07-1.27,1.26
				c-2.09,0.66-4.25,0.68-6.3-0.01c-1.82-0.61-1.01-2.36-1.05-3.63c-0.04-1.05,0.71-1.68,1.76-1.78c0.8-0.07,1.62-0.01,2.42-0.01
				C38.18,151.51,38.18,151.5,38.18,151.5z"/>
		</g>
	</g>
	<g>
		<g>
			<rect x="143.08" y="2" class="st3" width="221.75" height="93.2"/>
			<g>
				<g>
					<polygon class="st4" points="192.03,77.11 192.03,68.09 199.85,63.58 207.66,68.09 207.66,77.11 199.85,81.62 					"/>
					<g>
						<path class="st5" d="M199.85,64.16l7.31,4.22v8.44l-7.31,4.22l-7.31-4.22v-8.44L199.85,64.16 M199.85,63l-8.31,4.8v9.6
							l8.31,4.8l8.31-4.8v-9.6L199.85,63L199.85,63z"/>
					</g>
				</g>
				<g>
					<g>
						<polygon class="st4" points="192.03,67.51 192.03,58.49 199.85,53.98 207.66,58.49 207.66,67.51 199.85,72.02 						"/>
						<path class="st5" d="M199.85,54.55l7.31,4.22v8.44l-7.31,4.22l-7.31-4.22v-8.44L199.85,54.55 M199.85,53.4l-8.31,4.8v9.6
							l8.31,4.8l8.31-4.8v-9.6L199.85,53.4L199.85,53.4z"/>
					</g>
					<g>
						<polygon class="st4" points="192.03,57.91 192.03,48.89 199.85,44.38 207.66,48.89 207.66,57.91 199.85,62.42 						"/>
						<path class="st5" d="M199.85,44.95l7.31,4.22v8.44l-7.31,4.22l-7.31-4.22v-8.44L199.85,44.95 M199.85,43.8l-8.31,4.8v9.6
							l8.31,4.8l8.31-4.8v-9.6L199.85,43.8L199.85,43.8z"/>
					</g>
					<g>
						<polygon class="st4" points="192.03,48.31 192.03,39.29 199.85,34.78 207.66,39.29 207.66,48.31 199.85,52.82 						"/>
						<path class="st5" d="M199.85,35.35l7.31,4.22v8.44l-7.31,4.22l-7.31-4.22v-8.44L199.85,35.35 M199.85,34.2l-8.31,4.8v9.6
							l8.31,4.8l8.31-4.8V39L199.85,34.2L199.85,34.2z"/>
					</g>
					<g>
						<polygon class="st4" points="192.03,38.71 192.03,29.69 199.85,25.18 207.66,29.69 207.66,38.71 199.85,43.22 						"/>
						<path class="st5" d="M199.85,25.75l7.31,4.22v8.44l-7.31,4.22l-7.31-4.22v-8.44L199.85,25.75 M199.85,24.6l-8.31,4.8V39
							l8.31,4.8l8.31-4.8v-9.6L199.85,24.6L199.85,24.6z"/>
					</g>
					<g>
						<polygon class="st4" points="192.03,29.11 192.03,20.09 199.85,15.57 207.66,20.09 207.66,29.11 199.85,33.62 						"/>
						<path class="st5" d="M199.85,16.15l7.31,4.22v8.44l-7.31,4.22l-7.31-4.22v-8.44L199.85,16.15 M199.85,15l-8.31,4.8v9.6
							l8.31,4.8l8.31-4.8v-9.6L199.85,15L199.85,15z"/>
					</g>
				</g>
				<g>
					<polygon class="st4" points="183.6,33.79 183.6,24.77 191.42,20.26 199.23,24.77 199.23,33.79 191.42,38.3 					"/>
					<path class="st5" d="M191.42,20.84l7.31,4.22v8.44l-7.31,4.22l-7.31-4.22v-8.44L191.42,20.84 M191.42,19.68l-8.31,4.8v9.6
						l8.31,4.8l8.31-4.8v-9.6L191.42,19.68L191.42,19.68z"/>
				</g>
				<g>
					<polygon class="st4" points="175.18,38.71 175.18,29.69 182.99,25.18 190.8,29.69 190.8,38.71 182.99,43.22 					"/>
					<g>
						<path class="st5" d="M182.99,25.75l7.31,4.22v8.44l-7.31,4.22l-7.31-4.22v-8.44L182.99,25.75 M182.99,24.6l-8.31,4.8V39
							l8.31,4.8l8.31-4.8v-9.6L182.99,24.6L182.99,24.6z"/>
					</g>
				</g>
				<path class="st6" d="M283.99,81.03h-18.8c-3.74,0-6.77-3.03-6.77-6.77V22.93c0-3.74,3.03-6.77,6.77-6.77h18.8
					c3.74,0,6.77,3.03,6.77,6.77v51.33C290.76,78,287.73,81.03,283.99,81.03z"/>
				<path class="st7" d="M282.33,67.21h-15.48c-0.85,0-1.54-0.69-1.54-1.54V31.53c0-0.85,0.69-1.54,1.54-1.54h15.48
					c0.85,0,1.54,0.69,1.54,1.54v34.14C283.87,66.52,283.18,67.21,282.33,67.21z"/>
				<g>
					<g>
						<path class="st8" d="M312.94,16.1c-6.47-0.1-10.59,5.92-11.76,11.66c-0.7,3.45-0.71,6.99-0.81,10.49
							c-0.13,4.14-0.25,8.29-0.38,12.43s-0.25,8.29-0.38,12.43c-0.05,1.65-0.2,3.34,0.14,4.97c0.34,1.66,1.37,2.7,2.29,4.04
							c0.93,1.34,1.24,2.99,2.11,4.38c0.78,1.25,1.85,2.28,3.07,3.08c2.78,1.83,6.2,2.28,9.45,1.91c5.73-0.65,12.77-3.2,13.75-9.67
							c0.57-3.8,0.42-7.8,0.58-11.64c0.15-3.86,0.32-7.72,0.46-11.59c0.27-7.75,0.3-15.64-1.57-23.22
							c-0.62-2.52-1.66-5.39-4.44-6.15c-1.41-0.39-2.89-0.1-4.3,0.1c-0.92,0.13-1.87,0.26-2.79,0.1c-1.07-0.18-2.01-0.76-2.98-1.21
							c-3.04-1.42-6.48-1.76-9.71-0.8c-2.13,0.63-5.33,2.49-3.08,4.95c0.51,0.56,1.19,0.96,1.44,1.73c0.26,0.83-0.03,1.76-0.39,2.51
							c-0.73,1.5-2.06,2.59-3.05,3.91c-0.83,1.11-1.43,2.39-1.37,3.8c0.06,1.5,0.75,2.85,1.35,4.19c0.66,1.46,1.12,2.87,0.83,4.49
							c-0.28,1.53-0.98,2.96-1.58,4.38c-0.52,1.22-1,2.46-1.17,3.78c-0.22,1.67,0.21,3.16,0.8,4.71c0.67,1.77,1.05,3.28,0.49,5.15
							c-0.47,1.57-1.3,3.04-1.51,4.69c-0.28,2.27,0.52,4.49,2.71,5.38c0.54,0.22,0.98-0.18,1.36,0.73c0.12,0.3-0.01,0.92-0.02,1.24
							c-0.02,0.91-0.03,1.83,0.08,2.73c0.18,1.54,0.71,3.03,1.86,4.11c0.93,0.88,2.16,1.41,3.45,1.24c1.44-0.2,2.4-1.27,3.65-1.88
							c1.59-0.78,3.19,0.08,4.72,0.57c1.48,0.47,3.03,0.8,4.58,0.88c2.62,0.14,5.89-0.54,7.47-2.87c0.73-1.07,0.63-2.18,0.04-3.29
							c-0.68-1.27-1.57-2.3-0.29-3.52c1.57-1.49,3.93-2.27,4.41-4.63c0.53-2.56-1.52-4.76-2.24-7.06c-0.97-3.08,1.88-4.76,2.86-7.36
							c0.92-2.44-0.59-4.41-1.94-6.32c-0.69-0.97-1.55-2.18-0.96-3.4c0.67-1.39,2.45-1.9,3.25-3.24c0.56-0.94,0.83-2.21,0.15-3.16
							c-0.37-0.52-0.61-0.53-1.18-0.56c-0.92-0.05-1.58-0.52-2.09-1.28c-1.91-2.83,0.16-6.53-0.41-9.66
							c-0.55-3.05-2.88-5.6-5.16-7.56c-2.48-2.13-5.03-0.98-6.78,1.46c-3.42,4.79-3.21,11.6-0.18,16.52c1.6,2.6,4.62,5.47,3.75,8.81
							c0.37-0.15,0.73-0.3,1.1-0.45c-0.87-0.43-1.73-0.85-2.6-1.28c-0.34-0.17-0.84-0.12-1.03,0.27c-1.06,2.16-0.28,4.25,0.75,6.25
							c0.6,1.17,1.3,2.32,1.72,3.58c0.2,0.61,0.38,1.29,0.33,1.94c-0.06,0.67-1.01,2.24-1.66,1.07c-0.3-0.54-0.97-0.42-1.3,0
							c-1.34,1.74-1.04,4.02-0.27,5.94c0.83,2.07,3.19,4.9,2.03,7.21c-0.41,0.82-1.53,1.81-2.52,1.46
							c-1.32-0.46-1.02-2.61-1.19-3.69c-0.23-1.47-1.37-3.34-3.11-3.04c-0.74,0.13-1.92,1.56-2.51,1.18c-0.88-0.57-0.19-2.36,0-3.08
							c0.22-0.81,0.4-1.68,0.19-2.51c-0.26-1-0.92-1.33-1.74-1.82c-1.36-0.81-0.71-2.19-0.12-3.32c0.52-0.99,1.03-2,0.93-3.14
							c-0.18-1.94-2.76-3.69-1.86-5.65c0.83-1.81,2.91-2.72,3.45-4.73c0.33-1.25-0.3-2.33-0.38-3.56c-0.1-1.54,0.85-3.04,2.27-3.62
							c0.88-0.36,0.49-1.82-0.4-1.45c-2.16,0.89-3.63,3.03-3.33,5.41c0.16,1.29,0.78,2.41,0.02,3.63c-0.59,0.94-1.5,1.64-2.19,2.49
							c-1.46,1.79-1.33,3.54-0.12,5.44c0.94,1.47,1.35,2.4,0.51,4.08c-0.54,1.08-1.16,2.12-1.1,3.38c0.04,0.92,0.49,1.72,1.28,2.2
							c0.63,0.38,1.25,0.5,1.39,1.33c0.11,0.68-0.24,1.48-0.42,2.12c-0.43,1.49-0.34,4.16,1.68,4.43c0.4,0.05,0.81-0.03,1.16-0.21
							c0.46-0.24,0.84-0.84,1.3-1.01c1.71-0.62,1.69,2.62,1.8,3.52c0.26,2.08,1.78,3.76,3.98,2.98c2.57-0.91,3.22-3.69,2.47-6.06
							c-0.87-2.75-4.1-6.28-1.89-9.15c-0.43,0-0.86,0-1.3,0c0.6,1.09,2.02,1.41,3.09,0.78c1.36-0.8,1.51-2.59,1.24-3.98
							c-0.32-1.65-1.2-3.13-1.96-4.6c-0.81-1.54-1.75-3.33-0.91-5.04c-0.34,0.09-0.68,0.18-1.03,0.27c0.87,0.43,1.73,0.85,2.6,1.28
							c0.42,0.21,0.97,0.05,1.1-0.45c0.72-2.79-0.68-5.23-2.21-7.46c-1.7-2.48-3.2-4.84-3.66-7.87c-0.43-2.83-0.02-5.86,1.36-8.38
							c0.65-1.18,1.56-2.62,2.9-3.07c1.66-0.56,3.26,1.49,4.27,2.57c1.01,1.08,1.94,2.3,2.46,3.7c0.64,1.74,0.39,3.48,0.14,5.27
							c-0.34,2.44-0.42,5.06,1.48,6.93c0.33,0.32,0.72,0.61,1.14,0.81c0.36,0.17,1.29,0.13,1.53,0.33c0.47,0.37-0.35,1.62-0.56,1.87
							c-0.47,0.54-1.11,0.92-1.66,1.37c-1.77,1.47-2.12,3.4-0.98,5.38c1.15,2,3.53,3.88,2.32,6.4c-1.01,2.11-3.1,3.65-3.04,6.2
							c0.05,2.37,1.7,4.22,2.37,6.4c0.81,2.64-1.48,3.67-3.23,5.03c-1.61,1.25-2.26,2.86-1.24,4.74c0.25,0.46,0.64,0.89,0.82,1.39
							c0.4,1.12-0.44,1.9-1.29,2.47c-1.17,0.78-2.57,1.11-3.97,1.16c-1.42,0.05-2.84-0.17-4.21-0.53c-1.41-0.37-2.75-1.04-4.2-1.23
							c-1.24-0.16-2.3,0.18-3.34,0.84c-1.23,0.78-2.45,1.87-3.98,1.06c-1.65-0.88-2.12-2.77-2.22-4.48
							c-0.07-1.29,0.38-3.05-0.27-4.23c-0.64-1.16-1.91-0.63-2.81-1.34c-1.03-0.81-1.17-2.53-0.95-3.71
							c0.52-2.86,2.35-5.14,1.6-8.18c-0.33-1.34-1-2.57-1.32-3.91c-0.37-1.57,0-3.07,0.55-4.54c0.89-2.37,2.32-4.71,2.23-7.33
							c-0.09-2.73-2.43-4.98-2.29-7.68c0.15-2.87,3.41-4.57,4.45-7.11c0.45-1.1,0.64-2.33,0.19-3.46c-0.17-0.44-0.44-0.82-0.76-1.17
							c-0.54-0.58-1.72-1.16-1-2.13c0.87-1.16,3.43-1.54,4.78-1.66c1.63-0.15,3.29,0.03,4.85,0.53c1.49,0.48,2.81,1.43,4.33,1.82
							c1.4,0.37,2.8,0.17,4.2-0.03c1.53-0.22,3.26-0.49,4.56,0.57c1.17,0.97,1.65,2.59,2.02,4c0.89,3.43,1.36,6.96,1.58,10.5
							c0.45,6.98,0,13.98-0.27,20.96c-0.14,3.57-0.28,7.14-0.43,10.71c-0.13,3.32-0.17,6.52-2.87,8.85
							c-2.21,1.91-5.24,2.84-8.05,3.4c-3.3,0.65-6.87,0.59-9.84-1.15c-1.2-0.7-2.26-1.65-3.01-2.83c-0.87-1.38-1.18-3.03-2.11-4.38
							c-0.83-1.21-1.84-2.18-2.14-3.68c-0.36-1.79-0.11-3.76-0.05-5.57c0.22-7.29,0.44-14.59,0.66-21.88
							c0.19-6.25-0.39-13.86,3.88-18.99c1.82-2.18,4.36-3.69,7.25-3.65C313.91,17.61,313.91,16.11,312.94,16.1L312.94,16.1z"/>
					</g>
				</g>
				<g>
					<path class="st9" d="M216.25,61.65c1.31-3.38,1.69-7.15,0.77-10.6c-0.11-0.43-0.27-0.84-0.41-1.26
						c-0.16-0.41-0.35-0.81-0.53-1.21c-0.41-0.81-0.82-1.64-1.21-2.47c-0.78-1.67-1.48-3.39-2.09-5.15
						c-1.19-3.52-1.94-7.32-1.59-11.18c0.27-3.85,1.82-7.68,4.3-10.67c0.33-0.36,0.67-0.72,1.01-1.07l0.51-0.52l0.58-0.46
						c0.39-0.3,0.77-0.62,1.18-0.9l1.3-0.74c1.79-0.88,3.78-1.33,5.74-1.25c1.96,0.08,3.83,0.67,5.53,1.49
						c1.71,0.81,3.27,1.87,4.65,3.13c1.4,1.23,2.63,2.65,3.67,4.2c1.03,1.54,1.87,3.2,2.62,4.89c0.74,1.69,1.35,3.44,1.94,5.17
						c0.59,1.73,1.14,3.46,1.86,5.05c0.38,0.78,0.79,1.53,1.3,2.17l1.7,2.15c1.14,1.47,2.2,3.04,3.07,4.72
						c0.88,1.68,1.6,3.47,2.12,5.33c0.49,1.87,0.71,3.8,0.75,5.74c-0.05,0.96-0.02,1.94-0.18,2.89l-0.18,1.44l-0.3,1.41
						c-0.16,0.95-0.52,1.87-0.79,2.8c-0.33,0.92-0.73,1.81-1.14,2.69c-1.78,3.47-4.38,6.46-7.42,8.81
						c-3.1,2.27-6.57,4.11-10.41,4.87c-1.9,0.39-3.89,0.58-5.9,0.23c-1.93-0.3-3.78-0.93-5.5-1.86c-1.71-0.93-3.24-2.2-4.4-3.74
						c-1.16-1.54-1.97-3.3-2.41-5.11c-0.42-1.82-0.69-3.66-0.62-5.5c-0.03-0.92,0.07-1.83,0.12-2.75
						C215.98,63.48,216.13,62.56,216.25,61.65z M216.54,61.74c-0.5,3.53-0.54,7.3,0.64,10.67c1.1,3.41,3.73,6.06,6.88,7.31
						c1.57,0.64,3.27,0.98,4.95,1.13c1.62,0.14,3.31-0.13,4.94-0.54c3.28-0.84,6.4-2.48,9.1-4.59c2.72-2.1,4.96-4.76,6.6-7.72
						c1.6-2.97,2.4-6.4,2.54-9.81c0.01-1.71-0.16-3.41-0.5-5.09c-0.38-1.67-0.94-3.31-1.68-4.89c-0.74-1.58-1.63-3.1-2.61-4.6
						l-1.53-2.26c-0.56-0.84-0.96-1.73-1.31-2.61c-1.31-3.55-1.84-7.13-3.23-10.46c-0.65-1.67-1.47-3.28-2.44-4.78
						c-0.97-1.49-2.2-2.8-3.54-3.96c-2.69-2.3-6.16-3.77-9.56-3.68c-1.69,0.08-3.3,0.59-4.72,1.42l-1.03,0.69
						c-0.32,0.26-0.62,0.56-0.93,0.84l-0.46,0.42l-0.4,0.49c-0.27,0.33-0.54,0.65-0.81,0.97c-2.04,2.73-3.26,5.96-3.63,9.36
						l-0.11,1.28c-0.02,0.43-0.01,0.86-0.02,1.29c-0.05,0.86,0.05,1.73,0.08,2.61c0.18,1.74,0.43,3.49,0.82,5.23
						c0.4,1.74,0.91,3.46,1.49,5.17c0.29,0.86,0.6,1.7,0.92,2.55c0.15,0.45,0.31,0.89,0.45,1.34c0.1,0.46,0.24,0.91,0.31,1.37
						c0.31,1.84,0.35,3.71,0.11,5.54C217.65,58.24,217.24,60.06,216.54,61.74z"/>
				</g>
				<path class="st9" d="M234.53,34.15c-0.24-0.46-2.38-4.38-5.83-4.14c-3.25,0.22-5.63,3.98-5.83,7.1c-0.1,1.56,0.4,2.15,1.46,5.32
					c1.66,4.96,2.54,7.6,2.43,10.65c-0.17,4.65-2.49,5.59-1.94,10.06c0.13,1.11,0.42,3.27,1.94,4.73c0.13,0.12,1.84,1.72,3.89,1.18
					c1.46-0.38,2.29-1.64,3.89-4.14c2.07-3.24,1.78-4.14,3.4-5.92c1.77-1.94,2.57-1.38,3.4-2.96c1.14-2.17,0.88-5.62-0.49-7.69
					c-1.17-1.77-2.2-1.09-3.4-2.96c-0.82-1.27-0.62-2.02-1.46-5.92C235.37,36.59,235.05,35.15,234.53,34.15z"/>
			</g>
		</g>
		<g>
			<rect x="143.08" y="131" class="st3" width="221.75" height="93.2"/>
			<g>
				<g>
					<polygon class="st4" points="192.03,206.11 192.03,197.09 199.85,192.58 207.66,197.09 207.66,206.11 199.85,210.62 					"/>
					<g>
						<path class="st5" d="M199.85,193.16l7.31,4.22v8.44l-7.31,4.22l-7.31-4.22v-8.44L199.85,193.16 M199.85,192l-8.31,4.8v9.6
							l8.31,4.8l8.31-4.8v-9.6L199.85,192L199.85,192z"/>
					</g>
				</g>
				<g>
					<g>
						<polygon class="st4" points="192.03,196.51 192.03,187.49 199.85,182.98 207.66,187.49 207.66,196.51 199.85,201.02 						"/>
						<path class="st5" d="M199.85,183.55l7.31,4.22v8.44l-7.31,4.22l-7.31-4.22v-8.44L199.85,183.55 M199.85,182.4l-8.31,4.8v9.6
							l8.31,4.8l8.31-4.8v-9.6L199.85,182.4L199.85,182.4z"/>
					</g>
					<g>
						<polygon class="st4" points="192.03,186.91 192.03,177.89 199.85,173.38 207.66,177.89 207.66,186.91 199.85,191.42 						"/>
						<path class="st5" d="M199.85,173.95l7.31,4.22v8.44l-7.31,4.22l-7.31-4.22v-8.44L199.85,173.95 M199.85,172.8l-8.31,4.8v9.6
							l8.31,4.8l8.31-4.8v-9.6L199.85,172.8L199.85,172.8z"/>
					</g>
					<g>
						<polygon class="st4" points="192.03,177.31 192.03,168.29 199.85,163.78 207.66,168.29 207.66,177.31 199.85,181.82 						"/>
						<path class="st5" d="M199.85,164.35l7.31,4.22v8.44l-7.31,4.22l-7.31-4.22v-8.44L199.85,164.35 M199.85,163.2l-8.31,4.8v9.6
							l8.31,4.8l8.31-4.8V168L199.85,163.2L199.85,163.2z"/>
					</g>
					<g>
						<polygon class="st4" points="192.03,167.71 192.03,158.69 199.85,154.18 207.66,158.69 207.66,167.71 199.85,172.22 						"/>
						<path class="st5" d="M199.85,154.75l7.31,4.22v8.44l-7.31,4.22l-7.31-4.22v-8.44L199.85,154.75 M199.85,153.6l-8.31,4.8v9.6
							l8.31,4.8l8.31-4.8v-9.6L199.85,153.6L199.85,153.6z"/>
					</g>
					<g>
						<polygon class="st4" points="192.03,158.11 192.03,149.09 199.85,144.57 207.66,149.09 207.66,158.11 199.85,162.62 						"/>
						<path class="st5" d="M199.85,145.15l7.31,4.22v8.44l-7.31,4.22l-7.31-4.22v-8.44L199.85,145.15 M199.85,144l-8.31,4.8v9.6
							l8.31,4.8l8.31-4.8v-9.6L199.85,144L199.85,144z"/>
					</g>
				</g>
				<g>
					<polygon class="st4" points="183.6,162.79 183.6,153.77 191.42,149.26 199.23,153.77 199.23,162.79 191.42,167.3 					"/>
					<path class="st5" d="M191.42,149.84l7.31,4.22v8.44l-7.31,4.22l-7.31-4.22v-8.44L191.42,149.84 M191.42,148.68l-8.31,4.8v9.6
						l8.31,4.8l8.31-4.8v-9.6L191.42,148.68L191.42,148.68z"/>
				</g>
				<g>
					<polygon class="st4" points="175.18,167.71 175.18,158.69 182.99,154.18 190.8,158.69 190.8,167.71 182.99,172.22 					"/>
					<g>
						<path class="st5" d="M182.99,154.75l7.31,4.22v8.44l-7.31,4.22l-7.31-4.22v-8.44L182.99,154.75 M182.99,153.6l-8.31,4.8v9.6
							l8.31,4.8l8.31-4.8v-9.6L182.99,153.6L182.99,153.6z"/>
					</g>
				</g>
				<path class="st6" d="M283.99,210.03h-18.8c-3.74,0-6.77-3.03-6.77-6.77v-51.33c0-3.74,3.03-6.77,6.77-6.77h18.8
					c3.74,0,6.77,3.03,6.77,6.77v51.33C290.76,207,287.73,210.03,283.99,210.03z"/>
				<path class="st7" d="M282.33,196.21h-15.48c-0.85,0-1.54-0.69-1.54-1.54v-34.14c0-0.85,0.69-1.54,1.54-1.54h15.48
					c0.85,0,1.54,0.69,1.54,1.54v34.14C283.87,195.52,283.18,196.21,282.33,196.21z"/>
				<g>
					<g>
						<path class="st8" d="M312.94,145.1c-6.47-0.1-10.59,5.92-11.76,11.66c-0.7,3.45-0.71,6.99-0.81,10.49
							c-0.13,4.14-0.25,8.29-0.38,12.43s-0.25,8.29-0.38,12.43c-0.05,1.65-0.2,3.34,0.14,4.97c0.34,1.66,1.37,2.7,2.29,4.04
							c0.93,1.34,1.24,2.99,2.11,4.38c0.78,1.25,1.85,2.28,3.07,3.08c2.78,1.83,6.2,2.28,9.45,1.91c5.73-0.65,12.77-3.2,13.75-9.67
							c0.57-3.8,0.42-7.8,0.58-11.64c0.15-3.86,0.32-7.72,0.46-11.59c0.27-7.75,0.3-15.64-1.57-23.22
							c-0.62-2.52-1.66-5.39-4.44-6.15c-1.41-0.39-2.89-0.1-4.3,0.1c-0.92,0.13-1.87,0.26-2.79,0.1c-1.07-0.18-2.01-0.76-2.98-1.21
							c-3.04-1.42-6.48-1.76-9.71-0.8c-2.13,0.63-5.33,2.49-3.08,4.95c0.51,0.56,1.19,0.96,1.44,1.73c0.26,0.83-0.03,1.76-0.39,2.51
							c-0.73,1.5-2.06,2.59-3.05,3.91c-0.83,1.11-1.43,2.39-1.37,3.8c0.06,1.5,0.75,2.85,1.35,4.19c0.66,1.46,1.12,2.87,0.83,4.49
							c-0.28,1.53-0.98,2.96-1.58,4.38c-0.52,1.22-1,2.46-1.17,3.78c-0.22,1.67,0.21,3.16,0.8,4.71c0.67,1.77,1.05,3.28,0.49,5.15
							c-0.47,1.57-1.3,3.04-1.51,4.69c-0.28,2.27,0.52,4.49,2.71,5.38c0.54,0.22,0.98-0.18,1.36,0.73c0.12,0.3-0.01,0.92-0.02,1.24
							c-0.02,0.91-0.03,1.83,0.08,2.73c0.18,1.54,0.71,3.03,1.86,4.11c0.93,0.88,2.16,1.41,3.45,1.24c1.44-0.2,2.4-1.27,3.65-1.88
							c1.59-0.78,3.19,0.08,4.72,0.57c1.48,0.47,3.03,0.8,4.58,0.88c2.62,0.14,5.89-0.54,7.47-2.87c0.73-1.07,0.63-2.18,0.04-3.29
							c-0.68-1.27-1.57-2.3-0.29-3.52c1.57-1.49,3.93-2.27,4.41-4.63c0.53-2.56-1.52-4.76-2.24-7.06c-0.97-3.08,1.88-4.76,2.86-7.36
							c0.92-2.44-0.59-4.41-1.94-6.32c-0.69-0.97-1.55-2.18-0.96-3.4c0.67-1.39,2.45-1.9,3.25-3.24c0.56-0.94,0.83-2.21,0.15-3.16
							c-0.37-0.52-0.61-0.53-1.18-0.56c-0.92-0.05-1.58-0.52-2.09-1.28c-1.91-2.83,0.16-6.53-0.41-9.66
							c-0.55-3.05-2.88-5.6-5.16-7.56c-2.48-2.13-5.03-0.98-6.78,1.46c-3.42,4.79-3.21,11.6-0.18,16.52c1.6,2.6,4.62,5.47,3.75,8.81
							c0.37-0.15,0.73-0.3,1.1-0.45c-0.87-0.43-1.73-0.85-2.6-1.28c-0.34-0.17-0.84-0.12-1.03,0.27c-1.06,2.16-0.28,4.25,0.75,6.25
							c0.6,1.17,1.3,2.32,1.72,3.58c0.2,0.61,0.38,1.29,0.33,1.94c-0.06,0.67-1.01,2.24-1.66,1.07c-0.3-0.54-0.97-0.42-1.3,0
							c-1.34,1.74-1.04,4.02-0.27,5.94c0.83,2.07,3.19,4.9,2.03,7.21c-0.41,0.82-1.53,1.81-2.52,1.46
							c-1.32-0.46-1.02-2.61-1.19-3.69c-0.23-1.47-1.37-3.34-3.11-3.04c-0.74,0.13-1.92,1.56-2.51,1.18c-0.88-0.57-0.19-2.36,0-3.08
							c0.22-0.81,0.4-1.68,0.19-2.51c-0.26-1-0.92-1.33-1.74-1.82c-1.36-0.81-0.71-2.19-0.12-3.32c0.52-0.99,1.03-2,0.93-3.14
							c-0.18-1.94-2.76-3.69-1.86-5.65c0.83-1.81,2.91-2.72,3.45-4.73c0.33-1.25-0.3-2.33-0.38-3.56c-0.1-1.54,0.85-3.04,2.27-3.62
							c0.88-0.36,0.49-1.82-0.4-1.45c-2.16,0.89-3.63,3.03-3.33,5.41c0.16,1.29,0.78,2.41,0.02,3.63c-0.59,0.94-1.5,1.64-2.19,2.49
							c-1.46,1.79-1.33,3.54-0.12,5.44c0.94,1.47,1.35,2.4,0.51,4.08c-0.54,1.08-1.16,2.12-1.1,3.38c0.04,0.92,0.49,1.72,1.28,2.2
							c0.63,0.38,1.25,0.5,1.39,1.33c0.11,0.68-0.24,1.48-0.42,2.12c-0.43,1.49-0.34,4.16,1.68,4.43c0.4,0.05,0.81-0.03,1.16-0.21
							c0.46-0.24,0.84-0.84,1.3-1.01c1.71-0.62,1.69,2.62,1.8,3.52c0.26,2.08,1.78,3.76,3.98,2.98c2.57-0.91,3.22-3.69,2.47-6.06
							c-0.87-2.75-4.1-6.28-1.89-9.15c-0.43,0-0.86,0-1.3,0c0.6,1.09,2.02,1.41,3.09,0.78c1.36-0.8,1.51-2.59,1.24-3.98
							c-0.32-1.65-1.2-3.13-1.96-4.6c-0.81-1.54-1.75-3.33-0.91-5.04c-0.34,0.09-0.68,0.18-1.03,0.27c0.87,0.43,1.73,0.85,2.6,1.28
							c0.42,0.21,0.97,0.05,1.1-0.45c0.72-2.79-0.68-5.23-2.21-7.46c-1.7-2.48-3.2-4.84-3.66-7.87c-0.43-2.83-0.02-5.86,1.36-8.38
							c0.65-1.18,1.56-2.62,2.9-3.07c1.66-0.56,3.26,1.49,4.27,2.57c1.01,1.08,1.94,2.3,2.46,3.7c0.64,1.74,0.39,3.48,0.14,5.27
							c-0.34,2.44-0.42,5.06,1.48,6.93c0.33,0.32,0.72,0.61,1.14,0.81c0.36,0.17,1.29,0.13,1.53,0.33c0.47,0.37-0.35,1.62-0.56,1.87
							c-0.47,0.54-1.11,0.92-1.66,1.37c-1.77,1.47-2.12,3.4-0.98,5.38c1.15,2,3.53,3.88,2.32,6.4c-1.01,2.11-3.1,3.65-3.04,6.2
							c0.05,2.37,1.7,4.22,2.37,6.4c0.81,2.64-1.48,3.67-3.23,5.03c-1.61,1.25-2.26,2.86-1.24,4.74c0.25,0.46,0.64,0.89,0.82,1.39
							c0.4,1.12-0.44,1.9-1.29,2.47c-1.17,0.78-2.57,1.11-3.97,1.16c-1.42,0.05-2.84-0.17-4.21-0.53c-1.41-0.37-2.75-1.04-4.2-1.23
							c-1.24-0.16-2.3,0.18-3.34,0.84c-1.23,0.78-2.45,1.87-3.98,1.06c-1.65-0.88-2.12-2.77-2.22-4.48
							c-0.07-1.29,0.38-3.05-0.27-4.23c-0.64-1.16-1.91-0.63-2.81-1.34c-1.03-0.81-1.17-2.53-0.95-3.71
							c0.52-2.86,2.35-5.14,1.6-8.18c-0.33-1.34-1-2.57-1.32-3.91c-0.37-1.57,0-3.07,0.55-4.54c0.89-2.37,2.32-4.71,2.23-7.33
							c-0.09-2.73-2.43-4.98-2.29-7.68c0.15-2.87,3.41-4.57,4.45-7.11c0.45-1.1,0.64-2.33,0.19-3.46c-0.17-0.44-0.44-0.82-0.76-1.17
							c-0.54-0.58-1.72-1.16-1-2.13c0.87-1.16,3.43-1.54,4.78-1.66c1.63-0.15,3.29,0.03,4.85,0.53c1.49,0.48,2.81,1.43,4.33,1.82
							c1.4,0.37,2.8,0.17,4.2-0.03c1.53-0.22,3.26-0.49,4.56,0.57c1.17,0.97,1.65,2.59,2.02,4c0.89,3.43,1.36,6.96,1.58,10.5
							c0.45,6.98,0,13.98-0.27,20.96c-0.14,3.57-0.28,7.14-0.43,10.71c-0.13,3.32-0.17,6.52-2.87,8.85
							c-2.21,1.91-5.24,2.84-8.05,3.4c-3.3,0.65-6.87,0.59-9.84-1.15c-1.2-0.7-2.26-1.65-3.01-2.83c-0.87-1.38-1.18-3.03-2.11-4.38
							c-0.83-1.21-1.84-2.18-2.14-3.68c-0.36-1.79-0.11-3.76-0.05-5.57c0.22-7.29,0.44-14.59,0.66-21.88
							c0.19-6.25-0.39-13.86,3.88-18.99c1.82-2.18,4.36-3.69,7.25-3.65C313.91,146.61,313.91,145.11,312.94,145.1L312.94,145.1z"/>
					</g>
				</g>
				<g>
					<path class="st9" d="M216.25,190.65c1.31-3.38,1.69-7.15,0.77-10.6c-0.11-0.43-0.27-0.84-0.41-1.26
						c-0.16-0.41-0.35-0.81-0.53-1.21c-0.41-0.81-0.82-1.64-1.21-2.47c-0.78-1.67-1.48-3.39-2.09-5.15
						c-1.19-3.52-1.94-7.32-1.59-11.18c0.27-3.85,1.82-7.68,4.3-10.67c0.33-0.36,0.67-0.72,1.01-1.07l0.51-0.52l0.58-0.46
						c0.39-0.3,0.77-0.62,1.18-0.9l1.3-0.74c1.79-0.88,3.78-1.33,5.74-1.25c1.96,0.08,3.83,0.67,5.53,1.49
						c1.71,0.81,3.27,1.87,4.65,3.13c1.4,1.23,2.63,2.65,3.67,4.2c1.03,1.54,1.87,3.2,2.62,4.89c0.74,1.69,1.35,3.44,1.94,5.17
						c0.59,1.73,1.14,3.46,1.86,5.05c0.38,0.78,0.79,1.53,1.3,2.17l1.7,2.15c1.14,1.47,2.2,3.04,3.07,4.72
						c0.88,1.68,1.6,3.47,2.12,5.33c0.49,1.87,0.71,3.8,0.75,5.74c-0.05,0.96-0.02,1.94-0.18,2.89l-0.18,1.44l-0.3,1.41
						c-0.16,0.95-0.52,1.87-0.79,2.8c-0.33,0.92-0.73,1.81-1.14,2.69c-1.78,3.47-4.38,6.46-7.42,8.81
						c-3.1,2.27-6.57,4.11-10.41,4.87c-1.9,0.39-3.89,0.58-5.9,0.23c-1.93-0.3-3.78-0.93-5.5-1.86c-1.71-0.93-3.24-2.2-4.4-3.74
						c-1.16-1.54-1.97-3.3-2.41-5.11c-0.42-1.82-0.69-3.66-0.62-5.5c-0.03-0.92,0.07-1.83,0.12-2.75
						C215.98,192.48,216.13,191.56,216.25,190.65z M216.54,190.74c-0.5,3.53-0.54,7.3,0.64,10.67c1.1,3.41,3.73,6.06,6.88,7.31
						c1.57,0.64,3.27,0.98,4.95,1.13c1.62,0.14,3.31-0.13,4.94-0.54c3.28-0.84,6.4-2.48,9.1-4.59c2.72-2.1,4.96-4.76,6.6-7.72
						c1.6-2.97,2.4-6.4,2.54-9.81c0.01-1.71-0.16-3.41-0.5-5.09c-0.38-1.67-0.94-3.31-1.68-4.89c-0.74-1.58-1.63-3.1-2.61-4.6
						l-1.53-2.26c-0.56-0.84-0.96-1.73-1.31-2.61c-1.31-3.55-1.84-7.13-3.23-10.46c-0.65-1.67-1.47-3.28-2.44-4.78
						c-0.97-1.49-2.2-2.8-3.54-3.96c-2.69-2.3-6.16-3.77-9.56-3.68c-1.69,0.08-3.3,0.59-4.72,1.42l-1.03,0.69
						c-0.32,0.26-0.62,0.56-0.93,0.84l-0.46,0.42l-0.4,0.49c-0.27,0.33-0.54,0.65-0.81,0.97c-2.04,2.73-3.26,5.96-3.63,9.36
						l-0.11,1.28c-0.02,0.43-0.01,0.86-0.02,1.29c-0.05,0.86,0.05,1.73,0.08,2.61c0.18,1.74,0.43,3.49,0.82,5.23
						c0.4,1.74,0.91,3.46,1.49,5.17c0.29,0.86,0.6,1.7,0.92,2.55c0.15,0.45,0.31,0.89,0.45,1.34c0.1,0.46,0.24,0.91,0.31,1.37
						c0.31,1.84,0.35,3.71,0.11,5.54C217.65,187.24,217.24,189.06,216.54,190.74z"/>
				</g>
				<path class="st9" d="M234.53,163.15c-0.24-0.46-2.38-4.38-5.83-4.14c-3.25,0.22-5.63,3.98-5.83,7.1
					c-0.1,1.56,0.4,2.15,1.46,5.32c1.66,4.96,2.54,7.6,2.43,10.65c-0.17,4.65-2.49,5.59-1.94,10.06c0.13,1.11,0.42,3.27,1.94,4.73
					c0.13,0.12,1.84,1.72,3.89,1.18c1.46-0.38,2.29-1.64,3.89-4.14c2.07-3.24,1.78-4.14,3.4-5.92c1.77-1.94,2.57-1.38,3.4-2.96
					c1.14-2.17,0.88-5.62-0.49-7.69c-1.17-1.77-2.2-1.09-3.4-2.96c-0.82-1.27-0.62-2.02-1.46-5.92
					C235.37,165.59,235.05,164.15,234.53,163.15z"/>
			</g>
		</g>
		<g>
			<rect x="143.08" y="259" class="st3" width="221.75" height="93.2"/>
			<g>
				<g>
					<polygon class="st4" points="192.03,334.11 192.03,325.09 199.85,320.58 207.66,325.09 207.66,334.11 199.85,338.62 					"/>
					<g>
						<path class="st5" d="M199.85,321.16l7.31,4.22v8.44l-7.31,4.22l-7.31-4.22v-8.44L199.85,321.16 M199.85,320l-8.31,4.8v9.6
							l8.31,4.8l8.31-4.8v-9.6L199.85,320L199.85,320z"/>
					</g>
				</g>
				<g>
					<g>
						<polygon class="st4" points="192.03,324.51 192.03,315.49 199.85,310.98 207.66,315.49 207.66,324.51 199.85,329.02 						"/>
						<path class="st5" d="M199.85,311.55l7.31,4.22v8.44l-7.31,4.22l-7.31-4.22v-8.44L199.85,311.55 M199.85,310.4l-8.31,4.8v9.6
							l8.31,4.8l8.31-4.8v-9.6L199.85,310.4L199.85,310.4z"/>
					</g>
					<g>
						<polygon class="st4" points="192.03,314.91 192.03,305.89 199.85,301.38 207.66,305.89 207.66,314.91 199.85,319.42 						"/>
						<path class="st5" d="M199.85,301.95l7.31,4.22v8.44l-7.31,4.22l-7.31-4.22v-8.44L199.85,301.95 M199.85,300.8l-8.31,4.8v9.6
							l8.31,4.8l8.31-4.8v-9.6L199.85,300.8L199.85,300.8z"/>
					</g>
					<g>
						<polygon class="st4" points="192.03,305.31 192.03,296.29 199.85,291.78 207.66,296.29 207.66,305.31 199.85,309.82 						"/>
						<path class="st5" d="M199.85,292.35l7.31,4.22v8.44l-7.31,4.22l-7.31-4.22v-8.44L199.85,292.35 M199.85,291.2l-8.31,4.8v9.6
							l8.31,4.8l8.31-4.8V296L199.85,291.2L199.85,291.2z"/>
					</g>
					<g>
						<polygon class="st4" points="192.03,295.71 192.03,286.69 199.85,282.18 207.66,286.69 207.66,295.71 199.85,300.22 						"/>
						<path class="st5" d="M199.85,282.75l7.31,4.22v8.44l-7.31,4.22l-7.31-4.22v-8.44L199.85,282.75 M199.85,281.6l-8.31,4.8v9.6
							l8.31,4.8l8.31-4.8v-9.6L199.85,281.6L199.85,281.6z"/>
					</g>
					<g>
						<polygon class="st4" points="192.03,286.11 192.03,277.09 199.85,272.57 207.66,277.09 207.66,286.11 199.85,290.62 						"/>
						<path class="st5" d="M199.85,273.15l7.31,4.22v8.44l-7.31,4.22l-7.31-4.22v-8.44L199.85,273.15 M199.85,272l-8.31,4.8v9.6
							l8.31,4.8l8.31-4.8v-9.6L199.85,272L199.85,272z"/>
					</g>
				</g>
				<g>
					<polygon class="st4" points="183.6,290.79 183.6,281.77 191.42,277.26 199.23,281.77 199.23,290.79 191.42,295.3 					"/>
					<path class="st5" d="M191.42,277.84l7.31,4.22v8.44l-7.31,4.22l-7.31-4.22v-8.44L191.42,277.84 M191.42,276.68l-8.31,4.8v9.6
						l8.31,4.8l8.31-4.8v-9.6L191.42,276.68L191.42,276.68z"/>
				</g>
				<g>
					<polygon class="st4" points="175.18,295.71 175.18,286.69 182.99,282.18 190.8,286.69 190.8,295.71 182.99,300.22 					"/>
					<g>
						<path class="st5" d="M182.99,282.75l7.31,4.22v8.44l-7.31,4.22l-7.31-4.22v-8.44L182.99,282.75 M182.99,281.6l-8.31,4.8v9.6
							l8.31,4.8l8.31-4.8v-9.6L182.99,281.6L182.99,281.6z"/>
					</g>
				</g>
				<path class="st6" d="M283.99,338.03h-18.8c-3.74,0-6.77-3.03-6.77-6.77v-51.33c0-3.74,3.03-6.77,6.77-6.77h18.8
					c3.74,0,6.77,3.03,6.77,6.77v51.33C290.76,335,287.73,338.03,283.99,338.03z"/>
				<path class="st7" d="M282.33,324.21h-15.48c-0.85,0-1.54-0.69-1.54-1.54v-34.14c0-0.85,0.69-1.54,1.54-1.54h15.48
					c0.85,0,1.54,0.69,1.54,1.54v34.14C283.87,323.52,283.18,324.21,282.33,324.21z"/>
				<g>
					<g>
						<path class="st8" d="M312.94,273.1c-6.47-0.1-10.59,5.92-11.76,11.66c-0.7,3.45-0.71,6.99-0.81,10.49
							c-0.13,4.14-0.25,8.29-0.38,12.43s-0.25,8.29-0.38,12.43c-0.05,1.65-0.2,3.34,0.14,4.97c0.34,1.66,1.37,2.7,2.29,4.04
							c0.93,1.34,1.24,2.99,2.11,4.38c0.78,1.24,1.85,2.28,3.07,3.08c2.78,1.83,6.2,2.28,9.45,1.91c5.73-0.65,12.77-3.2,13.75-9.67
							c0.57-3.8,0.42-7.8,0.58-11.64c0.15-3.86,0.32-7.72,0.46-11.59c0.27-7.75,0.3-15.64-1.57-23.22
							c-0.62-2.52-1.66-5.39-4.44-6.15c-1.41-0.39-2.89-0.1-4.3,0.1c-0.92,0.13-1.87,0.26-2.79,0.1c-1.07-0.18-2.01-0.76-2.98-1.21
							c-3.04-1.42-6.48-1.76-9.71-0.8c-2.13,0.63-5.33,2.49-3.08,4.95c0.51,0.56,1.19,0.96,1.44,1.73c0.26,0.83-0.03,1.76-0.39,2.51
							c-0.73,1.5-2.06,2.59-3.05,3.91c-0.83,1.11-1.43,2.39-1.37,3.8c0.06,1.5,0.75,2.85,1.35,4.19c0.66,1.46,1.12,2.87,0.83,4.49
							c-0.28,1.53-0.98,2.96-1.58,4.38c-0.52,1.22-1,2.46-1.17,3.78c-0.22,1.67,0.21,3.16,0.8,4.71c0.67,1.77,1.05,3.28,0.49,5.15
							c-0.47,1.57-1.3,3.04-1.51,4.69c-0.28,2.27,0.52,4.49,2.71,5.38c0.54,0.22,0.98-0.18,1.36,0.73c0.12,0.3-0.01,0.92-0.02,1.24
							c-0.02,0.91-0.03,1.83,0.08,2.73c0.18,1.54,0.71,3.03,1.86,4.11c0.93,0.88,2.16,1.41,3.45,1.24c1.44-0.2,2.4-1.27,3.65-1.88
							c1.59-0.78,3.19,0.08,4.72,0.57c1.48,0.47,3.03,0.8,4.58,0.88c2.62,0.14,5.89-0.54,7.47-2.87c0.73-1.07,0.63-2.18,0.04-3.29
							c-0.68-1.27-1.57-2.3-0.29-3.52c1.57-1.49,3.93-2.27,4.41-4.63c0.53-2.56-1.52-4.76-2.24-7.06c-0.97-3.08,1.88-4.76,2.86-7.36
							c0.92-2.44-0.59-4.41-1.94-6.32c-0.69-0.97-1.55-2.18-0.96-3.4c0.67-1.39,2.45-1.9,3.25-3.24c0.56-0.94,0.83-2.21,0.15-3.16
							c-0.37-0.52-0.61-0.53-1.18-0.56c-0.92-0.05-1.58-0.52-2.09-1.28c-1.91-2.83,0.16-6.53-0.41-9.66
							c-0.55-3.05-2.88-5.6-5.16-7.56c-2.48-2.13-5.03-0.98-6.78,1.46c-3.42,4.79-3.21,11.6-0.18,16.52c1.6,2.6,4.62,5.47,3.75,8.81
							c0.37-0.15,0.73-0.3,1.1-0.45c-0.87-0.43-1.73-0.85-2.6-1.28c-0.34-0.17-0.84-0.12-1.03,0.27c-1.06,2.16-0.28,4.25,0.75,6.25
							c0.6,1.17,1.3,2.32,1.72,3.58c0.2,0.61,0.38,1.29,0.33,1.94c-0.06,0.67-1.01,2.24-1.66,1.07c-0.3-0.54-0.97-0.42-1.3,0
							c-1.34,1.74-1.04,4.02-0.27,5.94c0.83,2.07,3.19,4.9,2.03,7.21c-0.41,0.82-1.53,1.81-2.52,1.46
							c-1.32-0.46-1.02-2.61-1.19-3.69c-0.23-1.47-1.37-3.34-3.11-3.04c-0.74,0.13-1.92,1.56-2.51,1.18c-0.88-0.57-0.19-2.36,0-3.08
							c0.22-0.81,0.4-1.68,0.19-2.51c-0.26-1-0.92-1.33-1.74-1.82c-1.36-0.81-0.71-2.19-0.12-3.32c0.52-0.99,1.03-2,0.93-3.14
							c-0.18-1.94-2.76-3.69-1.86-5.65c0.83-1.81,2.91-2.72,3.45-4.73c0.33-1.25-0.3-2.33-0.38-3.56c-0.1-1.54,0.85-3.04,2.27-3.62
							c0.88-0.36,0.49-1.82-0.4-1.45c-2.16,0.89-3.63,3.03-3.33,5.41c0.16,1.29,0.78,2.41,0.02,3.63c-0.59,0.94-1.5,1.64-2.19,2.49
							c-1.46,1.79-1.33,3.54-0.12,5.44c0.94,1.47,1.35,2.4,0.51,4.08c-0.54,1.08-1.16,2.12-1.1,3.38c0.04,0.92,0.49,1.72,1.28,2.2
							c0.63,0.38,1.25,0.5,1.39,1.33c0.11,0.68-0.24,1.48-0.42,2.12c-0.43,1.49-0.34,4.16,1.68,4.43c0.4,0.05,0.81-0.03,1.16-0.21
							c0.46-0.24,0.84-0.84,1.3-1.01c1.71-0.62,1.69,2.62,1.8,3.52c0.26,2.08,1.78,3.76,3.98,2.98c2.57-0.91,3.22-3.69,2.47-6.06
							c-0.87-2.75-4.1-6.28-1.89-9.15c-0.43,0-0.86,0-1.3,0c0.6,1.09,2.02,1.41,3.09,0.78c1.36-0.8,1.51-2.59,1.24-3.98
							c-0.32-1.65-1.2-3.13-1.96-4.6c-0.81-1.54-1.75-3.33-0.91-5.04c-0.34,0.09-0.68,0.18-1.03,0.27c0.87,0.43,1.73,0.85,2.6,1.28
							c0.42,0.21,0.97,0.05,1.1-0.45c0.72-2.79-0.68-5.23-2.21-7.46c-1.7-2.48-3.2-4.84-3.66-7.87c-0.43-2.83-0.02-5.86,1.36-8.38
							c0.65-1.18,1.56-2.62,2.9-3.07c1.66-0.56,3.26,1.49,4.27,2.57c1.01,1.08,1.94,2.3,2.46,3.7c0.64,1.74,0.39,3.48,0.14,5.27
							c-0.34,2.44-0.42,5.06,1.48,6.93c0.33,0.32,0.72,0.61,1.14,0.81c0.36,0.17,1.29,0.13,1.53,0.33c0.47,0.37-0.35,1.62-0.56,1.87
							c-0.47,0.54-1.11,0.92-1.66,1.37c-1.77,1.47-2.12,3.4-0.98,5.38c1.15,2,3.53,3.88,2.32,6.4c-1.01,2.11-3.1,3.65-3.04,6.2
							c0.05,2.37,1.7,4.22,2.37,6.4c0.81,2.64-1.48,3.67-3.23,5.03c-1.61,1.25-2.26,2.86-1.24,4.74c0.25,0.46,0.64,0.89,0.82,1.39
							c0.4,1.12-0.44,1.9-1.29,2.47c-1.17,0.78-2.57,1.11-3.97,1.16c-1.42,0.05-2.84-0.17-4.21-0.53c-1.41-0.37-2.75-1.04-4.2-1.23
							c-1.24-0.16-2.3,0.18-3.34,0.84c-1.23,0.78-2.45,1.87-3.98,1.06c-1.65-0.88-2.12-2.77-2.22-4.48
							c-0.07-1.29,0.38-3.05-0.27-4.23c-0.64-1.16-1.91-0.63-2.81-1.34c-1.03-0.81-1.17-2.53-0.95-3.71
							c0.52-2.86,2.35-5.14,1.6-8.18c-0.33-1.34-1-2.57-1.32-3.91c-0.37-1.57,0-3.07,0.55-4.54c0.89-2.37,2.32-4.71,2.23-7.33
							c-0.09-2.73-2.43-4.98-2.29-7.68c0.15-2.87,3.41-4.57,4.45-7.11c0.45-1.1,0.64-2.33,0.19-3.46c-0.17-0.44-0.44-0.82-0.76-1.17
							c-0.54-0.58-1.72-1.16-1-2.13c0.87-1.16,3.43-1.54,4.78-1.66c1.63-0.15,3.29,0.03,4.85,0.53c1.49,0.48,2.81,1.43,4.33,1.82
							c1.4,0.37,2.8,0.17,4.2-0.03c1.53-0.22,3.26-0.49,4.56,0.57c1.17,0.97,1.65,2.59,2.02,4c0.89,3.43,1.36,6.96,1.58,10.5
							c0.45,6.98,0,13.98-0.27,20.96c-0.14,3.57-0.28,7.14-0.43,10.71c-0.13,3.32-0.17,6.52-2.87,8.85
							c-2.21,1.91-5.24,2.84-8.05,3.4c-3.3,0.65-6.87,0.59-9.84-1.15c-1.2-0.7-2.26-1.65-3.01-2.83c-0.87-1.38-1.18-3.03-2.11-4.38
							c-0.83-1.21-1.84-2.18-2.14-3.68c-0.36-1.79-0.11-3.76-0.05-5.57c0.22-7.29,0.44-14.59,0.66-21.88
							c0.19-6.25-0.39-13.86,3.88-18.99c1.82-2.18,4.36-3.69,7.25-3.65C313.91,274.61,313.91,273.11,312.94,273.1L312.94,273.1z"/>
					</g>
				</g>
				<g>
					<path class="st9" d="M216.25,318.65c1.31-3.38,1.69-7.15,0.77-10.6c-0.11-0.43-0.27-0.84-0.41-1.26
						c-0.16-0.41-0.35-0.81-0.53-1.21c-0.41-0.81-0.82-1.64-1.21-2.47c-0.78-1.67-1.48-3.39-2.09-5.15
						c-1.19-3.52-1.94-7.32-1.59-11.18c0.27-3.85,1.82-7.68,4.3-10.67c0.33-0.36,0.67-0.72,1.01-1.07l0.51-0.52l0.58-0.46
						c0.39-0.3,0.77-0.62,1.18-0.9l1.3-0.74c1.79-0.88,3.78-1.33,5.74-1.25c1.96,0.08,3.83,0.67,5.53,1.49
						c1.71,0.81,3.27,1.87,4.65,3.13c1.4,1.23,2.63,2.65,3.67,4.2c1.03,1.54,1.87,3.2,2.62,4.89c0.74,1.69,1.35,3.44,1.94,5.17
						c0.59,1.73,1.14,3.46,1.86,5.05c0.38,0.78,0.79,1.53,1.3,2.17l1.7,2.15c1.14,1.47,2.2,3.04,3.07,4.72
						c0.88,1.68,1.6,3.47,2.12,5.33c0.49,1.87,0.71,3.8,0.75,5.74c-0.05,0.96-0.02,1.94-0.18,2.89l-0.18,1.44l-0.3,1.41
						c-0.16,0.95-0.52,1.87-0.79,2.8c-0.33,0.92-0.73,1.81-1.14,2.69c-1.78,3.47-4.38,6.46-7.42,8.81
						c-3.1,2.27-6.57,4.11-10.41,4.87c-1.9,0.39-3.89,0.58-5.9,0.23c-1.93-0.3-3.78-0.93-5.5-1.86c-1.71-0.93-3.24-2.2-4.4-3.74
						c-1.16-1.54-1.97-3.3-2.41-5.11c-0.42-1.82-0.69-3.66-0.62-5.5c-0.03-0.92,0.07-1.83,0.12-2.75
						C215.98,320.48,216.13,319.56,216.25,318.65z M216.54,318.74c-0.5,3.53-0.54,7.3,0.64,10.67c1.1,3.41,3.73,6.06,6.88,7.31
						c1.57,0.64,3.27,0.98,4.95,1.13c1.62,0.14,3.31-0.13,4.94-0.54c3.28-0.84,6.4-2.48,9.1-4.59c2.72-2.1,4.96-4.76,6.6-7.72
						c1.6-2.97,2.4-6.4,2.54-9.81c0.01-1.71-0.16-3.41-0.5-5.09c-0.38-1.67-0.94-3.31-1.68-4.89c-0.74-1.58-1.63-3.1-2.61-4.6
						l-1.53-2.26c-0.56-0.84-0.96-1.73-1.31-2.61c-1.31-3.55-1.84-7.13-3.23-10.46c-0.65-1.67-1.47-3.28-2.44-4.78
						c-0.97-1.49-2.2-2.8-3.54-3.96c-2.69-2.3-6.16-3.77-9.56-3.68c-1.69,0.08-3.3,0.59-4.72,1.42l-1.03,0.69
						c-0.32,0.26-0.62,0.56-0.93,0.84l-0.46,0.42l-0.4,0.49c-0.27,0.33-0.54,0.65-0.81,0.97c-2.04,2.73-3.26,5.96-3.63,9.36
						l-0.11,1.28c-0.02,0.43-0.01,0.86-0.02,1.29c-0.05,0.86,0.05,1.73,0.08,2.61c0.18,1.74,0.43,3.49,0.82,5.23
						c0.4,1.74,0.91,3.46,1.49,5.17c0.29,0.86,0.6,1.7,0.92,2.55c0.15,0.45,0.31,0.89,0.45,1.34c0.1,0.46,0.24,0.91,0.31,1.37
						c0.31,1.84,0.35,3.71,0.11,5.54C217.65,315.24,217.24,317.06,216.54,318.74z"/>
				</g>
				<path class="st9" d="M234.53,291.15c-0.24-0.46-2.38-4.38-5.83-4.14c-3.25,0.22-5.63,3.98-5.83,7.1
					c-0.1,1.56,0.4,2.15,1.46,5.32c1.66,4.96,2.54,7.6,2.43,10.65c-0.17,4.65-2.49,5.59-1.94,10.06c0.13,1.11,0.42,3.27,1.94,4.73
					c0.13,0.12,1.84,1.72,3.89,1.18c1.46-0.38,2.29-1.64,3.89-4.14c2.07-3.24,1.78-4.14,3.4-5.92c1.77-1.94,2.57-1.38,3.4-2.96
					c1.14-2.17,0.88-5.62-0.49-7.69c-1.17-1.77-2.2-1.09-3.4-2.96c-0.82-1.27-0.62-2.02-1.46-5.92
					C235.37,293.59,235.05,292.15,234.53,291.15z"/>
			</g>
		</g>
	</g>
</g>
</svg>
