<?xml version="1.0" encoding="utf-8"?>
<!-- Generator: Adobe Illustrator 25.0.1, SVG Export Plug-In . SVG Version: 6.00 Build 0)  -->
<svg version="1.1" id="Layer_1" xmlns="http://www.w3.org/2000/svg" xmlns:xlink="http://www.w3.org/1999/xlink" x="0px" y="0px"
	 viewBox="0 0 119.91 170.02" style="enable-background:new 0 0 119.91 170.02;" xml:space="preserve">
<style type="text/css">
	.st0{fill:none;stroke:#FC7B24;stroke-width:0.5;stroke-miterlimit:10;}
	.st1{fill:none;stroke:#FC812D;stroke-width:0.5455;stroke-miterlimit:10;}
	.st2{fill:none;stroke:#FB8636;stroke-width:0.5909;stroke-miterlimit:10;}
	.st3{fill:none;stroke:#FB8C3E;stroke-width:0.6364;stroke-miterlimit:10;}
	.st4{fill:none;stroke:#FB9247;stroke-width:0.6818;stroke-miterlimit:10;}
	.st5{fill:none;stroke:#FB9850;stroke-width:0.7273;stroke-miterlimit:10;}
	.st6{fill:none;stroke:#FA9D59;stroke-width:0.7727;stroke-miterlimit:10;}
	.st7{fill:none;stroke:#FAA362;stroke-width:0.8182;stroke-miterlimit:10;}
	.st8{fill:none;stroke:#FAA96B;stroke-width:0.8636;stroke-miterlimit:10;}
	.st9{fill:none;stroke:#FAAF73;stroke-width:0.9091;stroke-miterlimit:10;}
	.st10{fill:none;stroke:#F9B47C;stroke-width:0.9545;stroke-miterlimit:10;}
	.st11{fill:none;stroke:#F9BA85;stroke-miterlimit:10;}
	.st12{fill:none;stroke:#F8B47C;stroke-width:0.9545;stroke-miterlimit:10;}
	.st13{fill:none;stroke:#F6AF73;stroke-width:0.9091;stroke-miterlimit:10;}
	.st14{fill:none;stroke:#F5A96B;stroke-width:0.8636;stroke-miterlimit:10;}
	.st15{fill:none;stroke:#F4A462;stroke-width:0.8182;stroke-miterlimit:10;}
	.st16{fill:none;stroke:#F29E59;stroke-width:0.7727;stroke-miterlimit:10;}
	.st17{fill:none;stroke:#F19950;stroke-width:0.7273;stroke-miterlimit:10;}
	.st18{fill:none;stroke:#EF9347;stroke-width:0.6818;stroke-miterlimit:10;}
	.st19{fill:none;stroke:#EE8E3E;stroke-width:0.6364;stroke-miterlimit:10;}
	.st20{fill:none;stroke:#ED8836;stroke-width:0.5909;stroke-miterlimit:10;}
	.st21{fill:none;stroke:#EB832D;stroke-width:0.5455;stroke-miterlimit:10;}
	.st22{fill:none;stroke:#EA7D24;stroke-width:0.5;stroke-miterlimit:10;}
	.st23{fill:#F72121;}
	.st24{fill:#FFFFFF;}
</style>
<g>
	<path class="st0" d="M0.88,23.26c0.85,1.45,3.18,4.97,7.7,7.05c1.35,0.62,6.54,3.01,11.86,0.8c5.8-2.4,8.36-8.86,8.54-13.74
		c0.25-6.74-3.91-13.21-10.56-16.56"/>
	<path class="st1" d="M18.76,2.37c6,2.97,9.59,8.66,9.19,14.68c-0.29,4.4-2.84,10.15-8.39,12.45c-5.14,2.13-10,0.37-11.23-0.01
		c-4.21-1.3-6.02-4.4-6.45-5.54"/>
	<path class="st2" d="M19.08,3.88c5.35,2.59,8.37,7.5,7.83,12.81c-0.4,3.92-2.93,8.96-8.23,11.15c-4.96,2.05-9.48,0.93-10.6,0.78
		c-3.83-0.5-5.2-3.19-5.19-4.03"/>
	<path class="st3" d="M19.44,5.31c4.7,2.21,7.15,6.33,6.47,10.93c-0.51,3.43-3.02,7.77-8.08,9.86c-4.78,1.98-8.95,1.26-9.97,1.58
		c-3.33-0.45-4.37-1.99-3.94-2.52"/>
	<path class="st4" d="M19.87,6.52c4.05,1.83,5.93,5.14,5.1,9.06c-0.62,2.94-3.12,6.58-7.92,8.57c-4.6,1.91-8.44,1.74-9.34,2.37
		c-2.93,0.09-3.54-0.79-2.68-1.01"/>
	<path class="st5" d="M20.36,7.48c3.4,1.45,4.71,3.93,3.74,7.18c-0.73,2.43-3.21,5.39-7.77,7.28c-4.42,1.83-7.92,2.22-8.71,3.17
		c-2.54,0.63-2.71,0.41-1.43,0.5"/>
	<path class="st6" d="M20.89,7.94c2.75,1.07,3.51,2.69,2.37,5.31c-0.83,1.91-3.31,4.21-7.62,5.99C11.4,21,8.24,21.95,7.57,23.2
		c-2.14,1.17-1.88,1.61-0.18,2.01"/>
	<path class="st7" d="M21.33,8.41c2.1,0.69,2.77,1.75,1.01,3.43c-0.56,1.55-3.4,3.02-7.46,4.7c-4.06,1.68-6.89,3.19-7.45,4.75
		c-1.74,1.72-1.05,2.82,1.08,3.52"/>
	<path class="st8" d="M21.79,8.85c1.46,0.31,1.62,0.59-0.35,1.56c-0.62,1.07-3.49,1.83-7.31,3.41c-3.88,1.61-6.1,3.76-6.82,5.55
		c-0.99,2.44-0.23,4.02,2.33,5.03"/>
	<path class="st9" d="M22.31,9.5c0.81-0.08,0.47-0.56-1.72-0.32C19.92,9.78,17,9.83,13.44,11.3c-3.71,1.54-5.67,4.19-6.19,6.34
		c-0.7,2.87,0.6,5.22,3.59,6.54"/>
	<path class="st10" d="M22.72,10.89c0.16-0.46-0.68-1.71-3.08-2.19c-0.73,0.12-3.68-0.55-7,0.83c-3.53,1.46-5.25,4.64-5.56,7.13
		c-0.42,3.36,1.43,6.42,4.84,8.05"/>
	<path class="st11" d="M22.99,12.75c-0.49-0.84-1.83-2.87-4.45-4.07c-0.78-0.36-3.77-1.74-6.84-0.46c-3.35,1.39-4.82,5.11-4.93,7.93
		c-0.15,3.89,2.26,7.62,6.09,9.56"/>
	<path class="st12" d="M21.55,14.05c-0.46-0.8-1.76-2.7-4.1-4.07c-0.73-0.43-3.43-1.86-6.18-0.86c-3,1.08-4.38,4.28-4.24,6.64
		c0.16,2.92,3.15,6.22,6.73,7.97"/>
	<path class="st13" d="M20.14,15.36c-0.42-0.76-1.69-2.56-3.75-4.07c-0.68-0.5-3.08-1.98-5.52-1.26c-2.66,0.78-3.98,3.48-3.55,5.36
		c0.46,2.01,4.05,4.82,7.38,6.39"/>
	<path class="st14" d="M18.69,16.69c-0.39-0.72-1.62-2.45-3.4-4.08c-0.64-0.59-2.74-2.1-4.87-1.66c-2.32,0.47-3.17,2.6-2.86,4.08
		c1.16,0.96,4.94,3.42,8.02,4.8"/>
	<path class="st15" d="M17.29,17.97c-0.36-0.69-1.54-2.36-3.05-4.08c-0.6-0.68-2.39-2.21-4.21-2.05c-1.97,0.17-2.62,1.76-2.18,2.79
		c1.59-0.02,5.84,2.02,8.66,3.21"/>
	<path class="st16" d="M15.13,17.73c-0.32-0.65-1.44-2.29-2.71-4.08c-0.55-0.77-2.05-2.33-3.55-2.45c-1.63-0.13-2.07,0.92-1.49,1.51
		c2.03-1,6.73,0.62,9.3,1.63"/>
	<path class="st17" d="M12.6,17.9c-0.29-0.61-1.33-2.24-2.36-4.08c-0.49-0.88-1.71-2.45-2.89-2.85c-1.29-0.44-1.52,0.08-0.8,0.22
		c2.47-1.98,7.63-0.78,9.94,0.04"/>
	<path class="st18" d="M10.1,18.82c-0.25-0.57-1.19-2.19-2.01-4.09c-0.42-0.98-1.36-2.57-2.23-3.25c-0.95-0.75-0.97-0.75-0.11-1.06
		c2.9-2.95,8.52-2.18,10.58-1.54"/>
	<path class="st19" d="M7.63,19.81c-0.22-0.54-1.04-2.15-1.66-4.09c-0.35-1.09-1.02-2.69-1.57-3.64c-0.61-1.06-0.33-1.49,0.58-2.34
		C8.73,6.19,14.39,6.15,16.2,6.6"/>
	<path class="st20" d="M5.24,20.93c-0.19-0.5-0.88-2.09-1.31-4.09c-0.26-1.2-0.67-2.81-0.91-4.04c-0.26-1.36,0.19-2.37,1.27-3.63
		C8.3,4.46,14.6,4.19,16.14,4.45"/>
	<path class="st21" d="M2.95,22.08c-0.15-0.46-0.71-2.03-0.97-4.09c-0.16-1.3-0.32-2.94-0.25-4.44c0.08-1.67,0.71-3.24,1.96-4.91
		c4.32-5.8,11.21-6.38,12.5-6.3"/>
	<path class="st22" d="M0.88,23.26c-0.29-1.01-2.2-8.27,2.43-15.13c4.64-6.86,12.1-7.78,13.14-7.89"/>
</g>
<g>
	<polygon class="st23" points="107.28,170.02 53.02,170.02 45.5,81.4 114.86,81.4 	"/>
	<polygon class="st24" points="40.46,76.07 119.83,76.07 119.91,81.4 40.46,81.4 	"/>
</g>
</svg>
